<svg xmlns="http://www.w3.org/2000/svg" xmlns:xlink="http://www.w3.org/1999/xlink" width="2048" zoomAndPan="magnify" viewBox="0 0 1536 1535.999932" height="2048" preserveAspectRatio="xMidYMid meet" version="1.0"><defs><g/><clipPath id="3446c056cd"><path d="M 388 227.117188 L 574 227.117188 L 574 496 L 388 496 Z M 388 227.117188 " clip-rule="nonzero"/></clipPath><clipPath id="d273d42340"><path d="M 210.203125 338 L 423 338 L 423 565 L 210.203125 565 Z M 210.203125 338 " clip-rule="nonzero"/></clipPath></defs><path fill="#000000" d="M 710.152344 447.335938 C 783.714844 419.292969 876.222656 383.65625 882.582031 381.433594 C 883.035156 382.484375 881.972656 395.558594 882.425781 396.613281 C 879.460938 398.148438 774.636719 436.765625 710.152344 461.613281 Z M 710.152344 447.335938 " fill-opacity="1" fill-rule="nonzero"/><path fill="#000000" d="M 710.152344 559.453125 L 710.152344 476.140625 L 865.335938 416.496094 C 869.96875 414.710938 875.410156 414.507812 880.472656 414.511719 C 888.339844 414.53125 896.210938 415.363281 904.078125 415.851562 C 910.941406 408.753906 918.503906 409.503906 924.414062 416.3125 C 930.589844 423.414062 927.449219 431.011719 920.628906 435.933594 C 911.609375 442.449219 901.84375 447.9375 892.386719 453.84375 C 894.589844 449.804688 895.660156 446.078125 888.371094 448.144531 C 884.636719 449.203125 881.367188 452 877.960938 454.132812 Z M 921.132812 426.59375 C 922.777344 423.441406 921.558594 419.546875 918.402344 417.898438 C 915.246094 416.253906 911.355469 417.476562 909.707031 420.636719 C 908.0625 423.792969 909.28125 427.683594 912.441406 429.328125 C 915.59375 430.976562 919.488281 429.75 921.132812 426.59375 Z M 921.132812 426.59375 " fill-opacity="1" fill-rule="nonzero"/><path fill="#000000" d="M 930.144531 410.742188 C 923.210938 401.5 913.777344 401.597656 903.949219 403.9375 C 901.03125 404.628906 898.417969 406.539062 895.234375 408.105469 C 889.210938 396.53125 890.207031 385.527344 894.699219 374.894531 C 895.699219 372.53125 900.324219 371.691406 903.28125 370.144531 C 903.050781 372.53125 905.738281 392.09375 911.726562 393.023438 C 917.0625 393.859375 921.929688 375.6875 921.0625 372.585938 C 936.820312 371.945312 965.488281 386.214844 967.558594 393.371094 C 963.472656 400.234375 962.894531 417.164062 965.765625 417.375 C 978.9375 418.328125 974.25 405.398438 982.324219 398.472656 C 984.4375 407.972656 986.898438 417.414062 988.585938 426.988281 C 991.074219 441.082031 995.050781 454.152344 1005.394531 464.921875 C 1059.746094 521.515625 1114.503906 577.746094 1167.695312 635.414062 C 1182.960938 651.964844 1200.699219 648.820312 1221.636719 652.878906 C 1217.515625 647.648438 1027.953125 468.878906 999.125 440.863281 C 996.019531 437.847656 995.429688 432.234375 993.679688 427.832031 L 997.300781 424.308594 C 1002.234375 426.878906 1007.933594 428.59375 1011.957031 432.179688 C 1024.527344 443.410156 1189.703125 607.582031 1230.335938 646.003906 C 1235.496094 650.878906 1243.339844 652.800781 1249.261719 657.039062 C 1253.632812 660.152344 1259.261719 664.308594 1260.222656 668.871094 C 1262.980469 681.914062 1274.199219 733.09375 1279.332031 745.027344 C 1282.867188 753.246094 1282.140625 759.652344 1274.660156 765.140625 C 1270.875 767.921875 1266.628906 770.828125 1264.320312 774.707031 C 1259.972656 782.011719 1256.617188 780.570312 1251.257812 775.792969 C 1241.667969 767.25 1212.464844 739.613281 1208.1875 734.011719 L 1235.386719 715.976562 L 1253.558594 736.878906 C 1247.929688 690.535156 1233.632812 663.976562 1202.023438 669.71875 C 1208.824219 677.28125 1214.957031 683.84375 1220.785156 690.664062 C 1228.113281 699.234375 1227.070312 707.460938 1218.558594 714.746094 C 1209.609375 722.410156 1202.5 718.246094 1195.085938 712.128906 C 1153.210938 677.613281 897.140625 472.835938 888.222656 464.5 C 895.175781 459.898438 923.964844 443.125 928.6875 437.359375 C 935.203125 429.410156 937.105469 420.039062 930.144531 410.742188 Z M 912.5 473.96875 C 919.789062 481.078125 1028.410156 570.761719 1075.429688 608.488281 C 1076.917969 609.675781 1078.484375 610.769531 1081.488281 610.085938 L 916.035156 469.910156 Z M 1159.484375 677.777344 C 1168.414062 681.835938 1176.617188 678.257812 1182.359375 666.050781 C 1162.90625 680.371094 1151.929688 669.253906 1152.347656 653.296875 C 1146.605469 664.734375 1149.027344 673.023438 1159.484375 677.777344 Z M 1174.917969 662.167969 C 1176.929688 658.320312 1175.4375 653.582031 1171.597656 651.574219 C 1167.75 649.566406 1163.011719 651.0625 1161.007812 654.90625 C 1159.003906 658.746094 1160.488281 663.492188 1164.332031 665.5 C 1168.175781 667.503906 1172.917969 666.007812 1174.917969 662.167969 Z M 1236.183594 664.773438 C 1234.179688 668.617188 1235.667969 673.355469 1239.511719 675.359375 C 1243.355469 677.367188 1248.09375 675.875 1250.097656 672.03125 C 1252.101562 668.191406 1250.613281 663.445312 1246.769531 661.441406 C 1242.929688 659.4375 1238.1875 660.929688 1236.183594 664.773438 Z M 1255.332031 750.171875 C 1253.324219 754.011719 1254.816406 758.757812 1258.660156 760.761719 C 1262.503906 762.765625 1267.242188 761.273438 1269.246094 757.433594 C 1271.253906 753.589844 1269.765625 748.847656 1265.917969 746.84375 C 1262.078125 744.839844 1257.335938 746.324219 1255.332031 750.171875 Z M 1255.332031 750.171875 " fill-opacity="1" fill-rule="nonzero"/><path stroke-linecap="butt" transform="matrix(4.177695, 0, 0, 4.178022, -432.656209, -923.899165)" fill-opacity="1" fill="#000000" fill-rule="nonzero" stroke-linejoin="miter" d="M 395.109838 403.012131 C 402.399295 408.09079 408.449842 414.353098 411.591527 422.899493 C 413.429787 427.900551 412.458295 431.607635 408.463868 435.044519 C 397.21084 444.723141 383.27429 448.681727 369.652843 453.464006 C 370.886141 450.655411 371.892228 448.201162 373.035764 445.81236 C 373.795939 444.219202 374.517779 442.511045 375.665055 441.218006 C 378.379433 438.160713 380.977868 435.073502 381.734303 430.927925 C 383.148996 423.183719 384.58613 415.440447 385.760522 407.657907 C 386.383248 403.535704 391.607234 400.570972 395.109838 403.012131 Z M 395.109838 403.012131 " stroke="#000000" stroke-width="0.518" stroke-opacity="1" stroke-miterlimit="4"/><path stroke-linecap="butt" transform="matrix(4.177695, 0, 0, 4.178022, -432.656209, -923.899165)" fill="none" stroke-linejoin="miter" d="M 321.985259 334.576456 C 323.730016 336.278068 349.730261 357.743629 360.985159 366.773395 C 361.341404 367.05762 361.716349 367.319407 362.435384 367.15579 L 322.831457 333.605041 Z M 321.985259 334.576456 " stroke="#000000" stroke-width="0.518" stroke-opacity="1" stroke-miterlimit="4"/><path stroke-linecap="butt" transform="matrix(4.177695, 0, 0, 4.178022, -432.656209, -923.899165)" fill="none" stroke-linejoin="miter" d="M 381.105031 383.357572 C 383.242499 384.328987 385.206052 383.472571 386.580539 380.550846 C 381.924113 383.97838 379.296693 381.317507 379.39674 377.498228 C 378.022253 380.235768 378.601969 382.219736 381.105031 383.357572 Z M 381.105031 383.357572 " stroke="#000000" stroke-width="0.518" stroke-opacity="1" stroke-miterlimit="4"/><path stroke-linecap="butt" transform="matrix(4.177695, 0, 0, 4.178022, -432.656209, -923.899165)" fill="none" stroke-linejoin="miter" d="M 384.799316 379.621504 C 385.280854 378.700577 384.923674 377.56648 384.004544 377.085915 C 383.083544 376.605349 381.949359 376.963436 381.469691 377.883429 C 380.990023 378.802486 381.345333 379.938453 382.265397 380.419018 C 383.185462 380.898649 384.320583 380.540562 384.799316 379.621504 Z M 384.799316 379.621504 " stroke="#000000" stroke-width="0.518" stroke-opacity="1" stroke-miterlimit="4"/><path stroke-linecap="butt" transform="matrix(4.177695, 0, 0, 4.178022, -432.656209, -923.899165)" fill="none" stroke-linejoin="miter" d="M 399.464251 380.245117 C 398.984583 381.16511 399.340827 382.299206 400.260892 382.778837 C 401.180957 383.259402 402.315142 382.90225 402.79481 381.982258 C 403.274478 381.0632 402.918234 379.927233 401.998169 379.447603 C 401.079039 378.967973 399.943918 379.325124 399.464251 380.245117 Z M 399.464251 380.245117 " stroke="#000000" stroke-width="0.518" stroke-opacity="1" stroke-miterlimit="4"/><path stroke-linecap="butt" transform="matrix(4.177695, 0, 0, 4.178022, -432.656209, -923.899165)" fill="none" stroke-linejoin="miter" d="M 404.047744 400.685036 C 403.567141 401.604094 403.924321 402.74006 404.844385 403.21969 C 405.76445 403.699321 406.898636 403.342169 407.378304 402.423111 C 407.858907 401.503119 407.502662 400.368087 406.581662 399.888457 C 405.662532 399.408826 404.527412 399.764108 404.047744 400.685036 Z M 404.047744 400.685036 " stroke="#000000" stroke-width="0.518" stroke-opacity="1" stroke-miterlimit="4"/><path stroke-linecap="butt" transform="matrix(4.177695, 0, 0, 4.178022, -432.656209, -923.899165)" fill="none" stroke-linejoin="miter" d="M 326.208768 319.443324 C 324.549098 317.231228 322.291013 317.254602 319.938489 317.814638 C 319.240026 317.980125 318.614494 318.437316 317.852448 318.812232 C 316.410639 316.041969 316.649071 313.40821 317.72435 310.863271 C 317.963716 310.297625 319.070786 310.09661 319.7786 309.726369 C 319.723434 310.297625 320.366731 314.979864 321.800124 315.202382 C 323.077369 315.402462 324.24241 311.053066 324.034835 310.310714 C 327.806726 310.157382 334.668876 313.572761 335.164439 315.285593 C 334.186403 316.928304 334.048019 320.980385 334.735263 321.030873 C 337.888168 321.259001 336.766137 318.16431 338.698834 316.50664 C 339.204683 318.780443 339.793749 321.040222 340.19768 323.331789 C 340.793291 326.705096 341.745146 329.833445 344.221093 332.411107 C 357.231033 345.956691 370.338216 359.415323 383.070454 373.218019 C 386.724533 377.17941 390.970482 376.426774 395.982217 377.398189 C 394.995765 376.146288 349.620864 333.358214 342.720378 326.652739 C 341.977033 325.930956 341.835844 324.58743 341.416953 323.533739 L 342.283721 322.690412 C 343.464658 323.305611 344.828859 323.716055 345.791935 324.57434 C 348.800846 327.262327 388.338386 366.556486 398.064518 375.752673 C 399.299686 376.919493 401.177217 377.37949 402.594715 378.393912 C 403.641008 379.139069 404.988379 380.133858 405.218395 381.225882 C 405.878523 384.347686 408.563916 396.597426 409.792539 399.453704 C 410.638736 401.420843 410.464822 402.954164 408.674248 404.267772 C 407.768209 404.933457 406.751837 405.629062 406.199237 406.557469 C 405.158554 408.305829 404.355367 407.960832 403.072513 406.817385 C 400.777026 404.772646 393.786778 398.157861 392.762925 396.81714 L 399.273505 392.500467 L 403.623243 397.503394 C 402.275871 386.411125 398.853679 380.054387 391.287455 381.428766 C 392.915334 383.238833 394.383324 384.809552 395.778381 386.441978 C 397.532489 388.493263 397.282837 390.462272 395.245417 392.205957 C 393.103274 394.040333 391.401528 393.043674 389.626851 391.579539 C 379.603381 383.318304 318.30874 334.30532 316.174078 332.310133 C 317.838423 331.208759 324.729558 327.194076 325.860004 325.814087 C 327.419626 323.91146 327.874983 321.66851 326.208768 319.443324 Z M 326.208768 319.443324 " stroke="#000000" stroke-width="0.518" stroke-opacity="1" stroke-miterlimit="4"/><path stroke-linecap="butt" transform="matrix(4.177695, 0, 0, 4.178022, -432.656209, -923.899165)" fill="none" stroke-linejoin="miter" d="M 273.55002 328.201954 C 291.158414 321.489934 313.301681 312.960368 314.823902 312.42838 C 314.932365 312.679882 314.678038 315.809166 314.786501 316.061603 C 314.076817 316.429039 288.985416 325.671974 273.55002 331.619203 Z M 273.55002 328.201954 " stroke="#000000" stroke-width="0.518" stroke-opacity="1" stroke-miterlimit="4"/><path stroke-linecap="butt" transform="matrix(4.177695, 0, 0, 4.178022, -432.656209, -923.899165)" fill="none" stroke-linejoin="miter" d="M 321.316716 321.811558 C 320.923071 322.566999 321.214799 323.498211 321.971234 323.891826 C 322.725799 324.286375 323.658019 323.9928 324.051665 323.237359 C 324.445311 322.482853 324.153583 321.550706 323.398082 321.156156 C 322.642582 320.762541 321.711297 321.055181 321.316716 321.811558 Z M 321.316716 321.811558 " stroke="#000000" stroke-width="0.518" stroke-opacity="1" stroke-miterlimit="4"/><path stroke-linecap="butt" transform="matrix(4.177695, 0, 0, 4.178022, -432.656209, -923.899165)" fill="none" stroke-linejoin="miter" d="M 273.55002 355.036944 L 273.55002 335.096289 L 310.695765 320.820508 C 311.804705 320.393235 313.107195 320.344618 314.318988 320.345553 C 316.202129 320.350228 318.086204 320.549372 319.969345 320.666241 C 321.612184 318.967434 323.422393 319.146945 324.837086 320.776566 C 326.315361 322.476308 325.563601 324.29479 323.931047 325.472829 C 321.772074 327.032329 319.434511 328.345936 317.170815 329.759584 C 317.698169 328.792843 317.954366 327.900899 316.209609 328.395489 C 315.315725 328.648861 314.533109 329.318286 313.717767 329.82877 Z M 273.55002 355.036944 " stroke="#000000" stroke-width="0.518" stroke-opacity="1" stroke-miterlimit="4"/><path fill="#fe5900" d="M 266.808594 814.175781 L 266.847656 774.65625 L 309.378906 758.21875 L 309.28125 795.898438 Z M 266.808594 814.175781 " fill-opacity="1" fill-rule="nonzero"/><path fill="#fe5900" d="M 378.664062 822.414062 L 378.0625 785.457031 L 421.617188 766.15625 L 421.828125 803.890625 Z M 378.664062 822.414062 " fill-opacity="1" fill-rule="nonzero"/><path fill="#fe5900" d="M 380.503906 934.953125 L 379.910156 898.519531 L 422.253906 879.246094 L 422.457031 915.722656 Z M 380.503906 934.953125 " fill-opacity="1" fill-rule="nonzero"/><path fill="#fe5900" d="M 476.933594 512.492188 L 678.679688 383.742188 L 675.613281 1100.191406 L 704.984375 1108.28125 L 698.078125 393.925781 L 698.078125 388.589844 L 806.226562 524.132812 L 812.289062 736.535156 L 767.914062 736.535156 L 772.351562 1126.832031 L 843.082031 1146.308594 L 840.171875 705.257812 L 1031.976562 783.332031 L 1031.703125 820.804688 L 888.183594 768.058594 L 888.679688 796.808594 L 1031.550781 841.394531 L 1031.390625 863.53125 L 889.019531 816.710938 L 889.429688 840.550781 L 1031.234375 884.695312 L 1031.03125 913.058594 L 889.824219 863.53125 L 890.207031 885.601562 L 1030.890625 931.945312 L 1030.691406 959.445312 L 890.628906 910.363281 L 891.03125 933.65625 L 1030.558594 977.570312 L 1030.34375 1007.03125 L 891.511719 961.582031 L 891.867188 982.292969 L 1030.210938 1025.488281 L 1030 1054.503906 L 892.308594 1007.835938 L 892.640625 1027.332031 L 1029.882812 1070.457031 L 1029.667969 1099.910156 L 893.085938 1053.230469 L 893.464844 1075.117188 L 1029.546875 1116.328125 L 1029.304688 1149.867188 L 893.960938 1103.945312 L 894.246094 1120.609375 L 1029.195312 1164.851562 L 1029.066406 1182.4375 L 1176.007812 1208.867188 C 1172.453125 1214.6875 1157.09375 1217.433594 1129.9375 1217.113281 C 934.984375 1206.441406 709.476562 1146.066406 566.492188 1102.828125 C 423.507812 1059.585938 363.050781 1033.480469 321.988281 1011.820312 C 280.929688 990.160156 259.265625 972.945312 248.152344 961.265625 C 237.039062 949.585938 236.472656 943.445312 238.011719 932.1875 C 239.546875 920.933594 243.183594 904.566406 256.519531 898.261719 C 252.882812 916.449219 253.125 924.449219 256.921875 930.996094 C 260.058594 936.398438 265.617188 940.8125 273.503906 946.957031 L 362.210938 906.578125 L 362.789062 943.074219 L 303.125 970.421875 C 309.101562 975.050781 315.746094 980.039062 323.160156 985.308594 L 422.597656 940.921875 L 422.792969 975.574219 L 355.230469 1005.105469 C 363.121094 1009.164062 372.222656 1013.296875 383.023438 1017.46875 L 422.925781 998.839844 L 423.105469 1030.652344 L 482.039062 1046.882812 L 477.113281 515.4375 L 520.824219 576.992188 L 520.972656 1057.605469 L 563.089844 1069.203125 L 563.5 634.457031 Z M 476.933594 512.492188 " fill-opacity="1" fill-rule="nonzero"/><path fill="#fe5900" d="M 328.730469 901.03125 L 328.9375 863.625 L 421.890625 823.097656 L 422.148438 860.648438 Z M 328.730469 901.03125 " fill-opacity="1" fill-rule="nonzero"/><path fill="#fe5900" d="M 266.917969 697.496094 L 266.945312 668.886719 L 309.660156 649.6875 L 309.582031 679.78125 Z M 266.917969 697.496094 " fill-opacity="1" fill-rule="nonzero"/><path fill="#fe5900" d="M 266.863281 757.089844 L 266.898438 720.289062 L 358.609375 679.925781 L 359.222656 718.492188 Z M 266.863281 757.089844 " fill-opacity="1" fill-rule="nonzero"/><path fill="#008f00" d="M 213.277344 357.191406 C 213.921875 354.320312 215.460938 355.453125 217.15625 356.949219 C 218.855469 358.445312 220.714844 360.304688 222.734375 362.445312 L 229.441406 369.71875 C 231.949219 372.425781 234.777344 375.417969 237.523438 377.800781 C 240.273438 380.1875 242.941406 381.964844 246.78125 384.105469 C 250.617188 386.246094 255.628906 388.753906 260.519531 390.855469 C 265.410156 392.957031 270.179688 394.652344 275.148438 395.988281 C 280.121094 397.320312 285.292969 398.289062 289.820312 398.773438 C 294.347656 399.261719 298.226562 399.261719 302.429688 399.339844 C 306.632812 399.421875 311.160156 399.582031 315.804688 400.59375 C 320.453125 401.605469 325.222656 403.460938 331.082031 405.6875 C 336.941406 407.910156 343.894531 410.496094 350.519531 414.011719 C 357.148438 417.527344 363.453125 421.972656 369.273438 426.902344 C 375.09375 431.832031 380.425781 437.246094 385.035156 443.550781 C 389.640625 449.855469 393.519531 457.046875 396.59375 463.714844 C 399.664062 470.386719 401.925781 476.527344 403.382812 482.914062 C 404.835938 489.296875 405.484375 495.925781 405.445312 501.179688 C 405.402344 506.433594 404.675781 510.3125 402.777344 513.261719 C 400.875 516.210938 397.804688 518.230469 394.53125 519.445312 C 391.257812 520.65625 387.78125 521.0625 383.984375 520.332031 C 380.183594 519.605469 376.0625 517.746094 371.09375 514.917969 C 366.121094 512.089844 360.300781 508.289062 355.25 505.058594 C 350.199219 501.824219 345.914062 499.15625 341.914062 496.289062 C 337.914062 493.417969 334.195312 490.347656 329.910156 486.308594 C 325.625 482.265625 320.777344 477.253906 315.199219 472.042969 C 309.621094 466.828125 303.316406 461.414062 297.539062 457.167969 C 291.757812 452.925781 286.507812 449.855469 281.980469 447.429688 C 277.453125 445.007812 273.65625 443.226562 271.996094 444.15625 C 270.339844 445.085938 270.824219 448.722656 271.632812 451.472656 C 272.441406 454.21875 273.574219 456.078125 275.191406 458.464844 L 281.535156 467.3125 C 284.164062 470.871094 287.3125 475.070312 290.265625 478.589844 C 293.214844 482.105469 295.964844 484.933594 299.519531 488.125 C 303.074219 491.316406 307.441406 494.875 312.652344 499.117188 L 330.070312 513.261719 C 336.214844 518.230469 342.4375 523.242188 347.167969 527.484375 C 351.894531 531.730469 355.128906 535.203125 357.472656 537.832031 C 359.816406 540.457031 361.269531 542.238281 361.796875 543.609375 C 362.320312 544.984375 361.917969 545.953125 360.421875 546.5625 C 358.925781 547.167969 356.339844 547.410156 352.179688 547.328125 C 348.015625 547.246094 342.277344 546.84375 336.011719 545.632812 C 329.75 544.417969 322.957031 542.398438 316.414062 540.214844 C 309.867188 538.035156 303.5625 535.691406 297.296875 532.253906 C 291.03125 528.820312 284.808594 524.292969 278.101562 519 C 271.390625 513.707031 264.199219 507.644531 258.378906 501.746094 C 252.558594 495.84375 248.113281 490.105469 243.789062 482.710938 C 239.464844 475.316406 235.261719 466.261719 231.703125 456.644531 C 228.148438 447.027344 225.238281 436.84375 222.933594 428.316406 C 220.632812 419.789062 218.933594 412.917969 217.398438 404.109375 C 215.863281 395.300781 214.488281 384.550781 213.679688 375.742188 C 212.871094 366.929688 212.628906 360.0625 213.277344 357.191406 Z M 213.277344 357.191406 " fill-opacity="1" fill-rule="nonzero"/><path fill="#fe5900" d="M 376.847656 711.128906 L 376.210938 672.179688 L 420.976562 652.476562 L 421.203125 692.59375 Z M 376.847656 711.128906 " fill-opacity="1" fill-rule="nonzero"/><path fill="#fe5900" d="M 308.984375 909.566406 L 266.703125 927.84375 L 266.738281 890.742188 L 309.082031 872.28125 Z M 308.984375 909.566406 " fill-opacity="1" fill-rule="nonzero"/><path fill="#fe5900" d="M 329.992188 671.304688 L 330.160156 640.472656 L 420.679688 599.78125 L 420.871094 633.566406 Z M 329.992188 671.304688 " fill-opacity="1" fill-rule="nonzero"/><path fill="#fe5900" d="M 329.355469 787.257812 L 329.558594 750.417969 L 421.328125 714.949219 L 421.511719 747.597656 Z M 329.355469 787.257812 " fill-opacity="1" fill-rule="nonzero"/><path fill="#036900" d="M 450.949219 455.796875 C 448.484375 456.160156 445.734375 455.835938 442.21875 454.179688 C 438.703125 452.523438 434.421875 449.53125 430.742188 445.773438 C 427.066406 442.015625 423.992188 437.488281 421.082031 433.207031 C 418.171875 428.921875 415.425781 424.882812 413.121094 420.800781 C 410.816406 416.71875 408.960938 412.597656 407.707031 409.160156 C 406.453125 405.726562 405.808594 402.976562 405.566406 399.785156 C 405.320312 396.59375 405.484375 392.957031 406.050781 389.117188 C 406.617188 385.277344 407.585938 381.234375 408.960938 377.722656 C 410.332031 374.203125 412.113281 371.214844 414.496094 366.890625 L 423.144531 350.726562 C 426.417969 344.542969 429.972656 337.835938 433.25 331.046875 C 436.519531 324.257812 439.511719 317.386719 442.542969 309.667969 C 445.574219 301.949219 448.644531 293.382812 452.082031 284.613281 C 455.515625 275.84375 459.316406 266.871094 462.546875 259.757812 C 465.78125 252.648438 468.449219 247.394531 470.871094 243.230469 C 473.296875 239.066406 475.480469 235.996094 477.257812 234.257812 C 479.035156 232.519531 480.410156 232.117188 481.90625 231.957031 C 483.402344 231.792969 485.019531 231.875 486.996094 232.199219 C 488.976562 232.519531 491.320312 233.085938 493.585938 234.300781 C 495.847656 235.511719 498.03125 237.371094 501.101562 240.402344 C 504.175781 243.433594 508.132812 247.636719 512.296875 252.605469 C 516.460938 257.578125 520.824219 263.316406 524.582031 269.296875 C 528.339844 275.277344 531.492188 281.5 534.765625 288.046875 C 538.039062 294.59375 541.433594 301.464844 544.585938 309.261719 C 547.738281 317.0625 550.648438 325.792969 552.792969 334.804688 C 554.933594 343.816406 556.308594 353.109375 556.753906 361.394531 C 557.195312 369.679688 556.710938 376.953125 555.578125 384.710938 C 554.449219 392.46875 552.671875 400.714844 549.960938 408.152344 C 547.253906 415.585938 543.617188 422.214844 536.988281 430.78125 C 530.363281 439.347656 520.742188 449.855469 513.550781 456.96875 C 506.355469 464.082031 501.585938 467.796875 497.382812 470.910156 C 493.179688 474.023438 489.542969 476.527344 486.835938 477.78125 C 484.128906 479.03125 482.351562 479.03125 481.179688 478.464844 C 480.007812 477.902344 479.441406 476.769531 479.480469 475.152344 C 479.519531 473.535156 480.167969 471.433594 481.824219 468.96875 C 483.480469 466.503906 486.148438 463.675781 488.414062 459.675781 C 490.675781 455.675781 492.535156 450.503906 494.152344 443.511719 C 495.769531 436.519531 497.140625 427.710938 498.234375 419.871094 C 499.324219 412.03125 500.132812 405.160156 500.898438 398.492188 C 501.667969 391.824219 502.394531 385.359375 502.960938 379.054688 C 503.527344 372.75 503.929688 366.605469 503.445312 361.070312 C 502.960938 355.535156 501.585938 350.605469 500.578125 345.554688 C 499.566406 340.5 498.921875 335.328125 497.828125 330.679688 C 496.738281 326.035156 495.203125 321.914062 493.546875 317.910156 C 491.886719 313.910156 490.109375 310.03125 488.855469 309.75 C 487.605469 309.464844 486.875 312.777344 486.230469 317.023438 C 485.582031 321.265625 485.019531 326.4375 484.695312 332.339844 C 484.371094 338.238281 484.289062 344.867188 483.886719 350.804688 C 483.480469 356.746094 482.753906 362 481.5 371.335938 C 480.25 380.671875 478.472656 394.085938 476.691406 404.269531 C 474.914062 414.453125 473.136719 421.40625 471.074219 427.832031 C 469.015625 434.257812 466.671875 440.15625 464.40625 444.320312 C 462.144531 448.480469 459.960938 450.90625 457.777344 452.644531 C 455.597656 454.382812 453.414062 455.433594 450.949219 455.796875 Z M 450.949219 455.796875 " fill-opacity="1" fill-rule="nonzero"/><path fill="#fe5900" d="M 266.757812 870.445312 L 266.789062 834.761719 L 360.410156 793.277344 L 360.992188 830 Z M 266.757812 870.445312 " fill-opacity="1" fill-rule="nonzero"/><path stroke-linecap="butt" transform="matrix(5.813724, 0, 0, 5.813447, -1936.672768, -1572.385901)" fill="none" stroke-linejoin="miter" d="M 510.209919 462.49914 L 510.168261 468.268362 " stroke="#000000" stroke-width="0.518" stroke-opacity="1" stroke-miterlimit="4"/><path stroke-linecap="butt" transform="matrix(5.813724, 0, 0, 5.813447, -1936.672768, -1572.385901)" fill="none" stroke-linejoin="miter" d="M 380.165395 433.364772 L 395.423607 426.418994 " stroke="#000000" stroke-width="0.518" stroke-opacity="1" stroke-miterlimit="4"/><path stroke-linecap="butt" transform="matrix(5.813724, 0, 0, 5.813447, -1936.672768, -1572.385901)" fill="none" stroke-linejoin="miter" d="M 394.222919 443.367175 L 405.844128 438.287357 " stroke="#000000" stroke-width="0.518" stroke-opacity="1" stroke-miterlimit="4"/><path stroke-linecap="butt" transform="matrix(5.813724, 0, 0, 5.813447, -1936.672768, -1572.385901)" fill="none" stroke-linejoin="miter" d="M 398.570122 431.29992 L 405.786344 427.991991 " stroke="#000000" stroke-width="0.518" stroke-opacity="1" stroke-miterlimit="4"/><path stroke-linecap="butt" transform="matrix(5.813724, 0, 0, 5.813447, -1936.672768, -1572.385901)" fill="none" stroke-linejoin="miter" d="M 379.02921 394.374481 L 394.804114 387.431391 " stroke="#000000" stroke-width="0.518" stroke-opacity="1" stroke-miterlimit="4"/><path stroke-linecap="butt" transform="matrix(5.813724, 0, 0, 5.813447, -1936.672768, -1572.385901)" fill="none" stroke-linejoin="miter" d="M 398.467993 425.032795 L 398.570122 431.29992 " stroke="#000000" stroke-width="0.518" stroke-opacity="1" stroke-miterlimit="4"/><path stroke-linecap="butt" transform="matrix(5.813724, 0, 0, 5.813447, -1936.672768, -1572.385901)" fill="none" stroke-linejoin="miter" d="M 422.706168 369.725269 L 415.18759 359.13694 " stroke="#000000" stroke-width="0.518" stroke-opacity="1" stroke-miterlimit="4"/><path stroke-linecap="butt" transform="matrix(5.813724, 0, 0, 5.813447, -1936.672768, -1572.385901)" fill="none" stroke-linejoin="miter" d="M 486.315085 427.070098 L 486.384291 431.076838 " stroke="#000000" stroke-width="0.518" stroke-opacity="1" stroke-miterlimit="4"/><path stroke-linecap="butt" transform="matrix(5.813724, 0, 0, 5.813447, -1936.672768, -1572.385901)" fill="none" stroke-linejoin="miter" d="M 385.260424 437.401077 C 386.288434 438.197318 387.431338 439.055377 388.706607 439.961816 " stroke="#000000" stroke-width="0.518" stroke-opacity="1" stroke-miterlimit="4"/><g clip-path="url(#3446c056cd)"><path stroke-linecap="butt" transform="matrix(5.813724, 0, 0, 5.813447, -1936.672768, -1572.385901)" fill="none" stroke-linejoin="miter" d="M 410.687194 348.877858 C 410.263224 348.940348 409.790205 348.884577 409.185494 348.599677 C 408.580782 348.314778 407.844378 347.800076 407.211447 347.153676 C 406.579188 346.507276 406.050401 345.728505 405.549835 344.992066 C 405.049268 344.254955 404.576921 343.560175 404.180499 342.858005 C 403.784077 342.155834 403.464924 341.446944 403.249244 340.855643 C 403.033563 340.265013 402.9227 339.791972 402.881042 339.243002 C 402.838712 338.694032 402.866932 338.068462 402.964358 337.407951 C 403.061783 336.747441 403.228415 336.05199 403.464924 335.447921 C 403.700762 334.842509 404.007149 334.32848 404.417009 333.584649 L 405.904599 330.804188 C 406.467652 329.740517 407.079083 328.586807 407.642808 327.418987 C 408.205189 326.251166 408.719866 325.069235 409.241262 323.741494 C 409.762657 322.413753 410.290772 320.940203 410.882045 319.431712 C 411.472647 317.923221 412.126407 316.37979 412.682069 315.156199 C 413.238404 313.93328 413.697313 313.029529 414.113891 312.313248 C 414.531142 311.596967 414.906735 311.068827 415.21245 310.769816 C 415.518166 310.470806 415.754675 310.401597 416.012013 310.374047 C 416.269352 310.345826 416.547519 310.359937 416.887501 310.415707 C 417.228155 310.470806 417.631296 310.568236 418.020999 310.777208 C 418.41003 310.985507 418.785623 311.305347 419.313737 311.826768 C 419.842524 312.348188 420.52316 313.071189 421.239407 313.925888 C 421.955654 314.78126 422.706168 315.76833 423.352537 316.797061 C 423.998907 317.825791 424.541131 318.896181 425.104185 320.022342 C 425.667238 321.148503 426.251121 322.330434 426.793345 323.671613 C 427.33557 325.013465 427.836136 326.515236 428.20501 328.065387 C 428.573212 329.615538 428.809722 331.214068 428.886318 332.639239 C 428.962243 334.06441 428.878927 335.31555 428.684076 336.65001 C 428.489896 337.984471 428.184181 339.402922 427.717882 340.682284 C 427.252254 341.960973 426.626714 343.101245 425.486497 344.574795 C 424.346952 346.048346 422.692058 347.855847 421.455088 349.079438 C 420.217445 350.303029 419.397053 350.942038 418.674087 351.477569 C 417.951121 352.0131 417.325581 352.443809 416.859953 352.6595 C 416.394325 352.874519 416.08861 352.874519 415.88704 352.777088 C 415.685469 352.68033 415.588043 352.485469 415.594762 352.207289 C 415.601481 351.929108 415.713017 351.567608 415.997903 351.143618 C 416.28279 350.719628 416.741698 350.233148 417.131401 349.545088 C 417.520432 348.857028 417.840257 347.967388 418.118425 346.764627 C 418.396592 345.561866 418.632429 344.046655 418.820562 342.698085 C 419.008022 341.349514 419.147106 340.167583 419.278798 339.020592 C 419.411163 337.873601 419.536137 336.761551 419.633562 335.677051 C 419.730988 334.59255 419.800194 333.535598 419.716878 332.583468 C 419.633562 331.631338 419.397053 330.783358 419.223703 329.914548 C 419.04968 329.045066 418.938816 328.155426 418.750684 327.355825 C 418.563223 326.556896 418.299166 325.848006 418.01428 325.159274 C 417.728722 324.471214 417.423006 323.803984 417.207326 323.755605 C 416.992318 323.706554 416.866672 324.276353 416.755808 325.006745 C 416.644273 325.736465 416.547519 326.626105 416.491751 327.641397 C 416.435983 328.656016 416.421873 329.796288 416.352667 330.817627 C 416.28279 331.839638 416.157816 332.743389 415.942136 334.34931 C 415.727127 335.955231 415.421412 338.262651 415.115025 340.014382 C 414.80931 341.766113 414.503594 342.962155 414.14883 344.067485 C 413.794738 345.172816 413.391597 346.187436 413.001894 346.903717 C 412.612863 347.619326 412.237271 348.036597 411.861678 348.335607 C 411.486757 348.634618 411.111164 348.815368 410.687194 348.877858 Z M 410.687194 348.877858 " stroke="#000000" stroke-width="0.518" stroke-opacity="1" stroke-miterlimit="4"/></g><path stroke-linecap="butt" transform="matrix(5.813724, 0, 0, 5.813447, -1936.672768, -1572.385901)" fill="none" stroke-linejoin="miter" d="M 486.176674 419.014286 L 486.24252 422.810711 " stroke="#000000" stroke-width="0.518" stroke-opacity="1" stroke-miterlimit="4"/><path stroke-linecap="butt" transform="matrix(5.813724, 0, 0, 5.813447, -1936.672768, -1572.385901)" fill="none" stroke-linejoin="miter" d="M 388.706607 439.961816 L 405.810532 432.326634 " stroke="#000000" stroke-width="0.518" stroke-opacity="1" stroke-miterlimit="4"/><path stroke-linecap="butt" transform="matrix(5.813724, 0, 0, 5.813447, -1936.672768, -1572.385901)" fill="none" stroke-linejoin="miter" d="M 405.751405 421.717475 L 405.786344 427.991991 " stroke="#000000" stroke-width="0.518" stroke-opacity="1" stroke-miterlimit="4"/><path stroke-linecap="butt" transform="matrix(5.813724, 0, 0, 5.813447, -1936.672768, -1572.385901)" fill="none" stroke-linejoin="miter" d="M 398.467993 425.032795 L 405.751405 421.717475 " stroke="#000000" stroke-width="0.518" stroke-opacity="1" stroke-miterlimit="4"/><path stroke-linecap="butt" transform="matrix(5.813724, 0, 0, 5.813447, -1936.672768, -1572.385901)" fill="none" stroke-linejoin="miter" d="M 465.970579 464.305969 L 478.1367 467.65623 L 477.636133 391.788881 L 510.627842 405.218817 L 510.580809 411.664676 " stroke="#000000" stroke-width="0.518" stroke-opacity="1" stroke-miterlimit="4"/><path stroke-linecap="butt" transform="matrix(5.813724, 0, 0, 5.813447, -1936.672768, -1572.385901)" fill="none" stroke-linejoin="miter" d="M 449.330938 459.723382 L 454.382965 461.114957 " stroke="#000000" stroke-width="0.518" stroke-opacity="1" stroke-miterlimit="4"/><path stroke-linecap="butt" transform="matrix(5.813724, 0, 0, 5.813447, -1936.672768, -1572.385901)" fill="none" stroke-linejoin="miter" d="M 510.383942 438.630715 L 510.346987 443.698438 " stroke="#000000" stroke-width="0.518" stroke-opacity="1" stroke-miterlimit="4"/><g clip-path="url(#d273d42340)"><path stroke-linecap="butt" transform="matrix(5.813724, 0, 0, 5.813447, -1936.672768, -1572.385901)" fill="none" stroke-linejoin="miter" d="M 369.806017 331.916238 C 369.694482 332.410109 369.73614 333.591369 369.875223 335.107251 C 370.014307 336.622461 370.250816 338.471622 370.514874 339.986833 C 370.778931 341.502043 371.071208 342.683974 371.466958 344.150805 C 371.86338 345.617636 372.363946 347.369367 372.975377 349.023667 C 373.587479 350.677968 374.310445 352.23551 375.05424 353.50748 C 375.798035 354.779451 376.562659 355.766521 377.563792 356.781813 C 378.564926 357.796432 379.801896 358.839273 380.956223 359.749743 C 382.109878 360.660213 383.180217 361.438984 384.257947 362.029614 C 385.335677 362.620916 386.420126 363.024076 387.546233 363.399015 C 388.671668 363.774626 389.840105 364.122015 390.917163 364.330987 C 391.994893 364.539286 392.981917 364.608495 393.698164 364.622606 C 394.413739 364.636716 394.858538 364.595056 395.115876 364.490907 C 395.373214 364.386085 395.44242 364.219446 395.352385 363.982925 C 395.261679 363.747076 395.011731 363.440675 394.60859 362.989135 C 394.205449 362.536924 393.649115 361.939575 392.836114 361.209183 C 392.022441 360.479463 390.952102 359.617372 389.895201 358.762673 L 386.899192 356.329601 C 386.002876 355.599881 385.25169 354.98775 384.640259 354.43878 C 384.028829 353.88981 383.55581 353.403331 383.048525 352.79859 C 382.540567 352.193178 381.999014 351.47085 381.546825 350.858718 L 380.455657 349.336788 C 380.177489 348.926237 379.982638 348.606397 379.843554 348.134027 C 379.704471 347.660986 379.621155 347.035416 379.906041 346.875496 C 380.191599 346.715576 380.844688 347.021977 381.623421 347.438576 C 382.402155 347.855847 383.305191 348.383987 384.299605 349.113707 C 385.293348 349.844098 386.377797 350.775398 387.337272 351.67243 C 388.296747 352.568789 389.130577 353.43088 389.867653 354.126331 C 390.604729 354.82111 391.244379 355.34925 391.932406 355.843121 C 392.620434 356.336321 393.35751 356.795251 394.226278 357.351612 C 395.095047 357.907301 396.09618 358.561093 396.951511 359.047573 C 397.80617 359.534053 398.515026 359.853893 399.168786 359.978873 C 399.821874 360.104524 400.419867 360.034643 400.98292 359.826344 C 401.545973 359.617372 402.074088 359.269983 402.401304 358.762673 C 402.727848 358.255363 402.852822 357.588133 402.860213 356.684382 C 402.866932 355.780632 402.755396 354.64036 402.505449 353.542421 C 402.25483 352.443809 401.865799 351.38753 401.337684 350.239867 C 400.808897 349.092877 400.141699 347.855847 399.349527 346.771346 C 398.556684 345.686845 397.639538 344.755545 396.638405 343.907565 C 395.637271 343.059585 394.552822 342.294924 393.412606 341.690184 C 392.273061 341.085444 391.077076 340.640624 390.069224 340.258294 C 389.061371 339.875292 388.240979 339.556123 387.441417 339.382092 C 386.642526 339.208062 385.863792 339.180512 385.140826 339.166402 C 384.41786 339.152963 383.750662 339.152963 382.971928 339.068971 C 382.193194 338.985652 381.303596 338.819012 380.448266 338.589883 C 379.593607 338.360081 378.773215 338.068462 377.931994 337.706962 C 377.090774 337.345462 376.228724 336.91408 375.568917 336.545861 C 374.908438 336.177641 374.449529 335.871911 373.97651 335.46136 C 373.504163 335.05148 373.017707 334.536779 372.586346 334.071129 L 371.432691 332.819989 C 371.085318 332.451769 370.765493 332.131929 370.473216 331.874578 C 370.18161 331.617228 369.916881 331.422367 369.806017 331.916238 Z M 369.806017 331.916238 " stroke="#000000" stroke-width="0.518" stroke-opacity="1" stroke-miterlimit="4"/></g><path stroke-linecap="butt" transform="matrix(5.813724, 0, 0, 5.813447, -1936.672768, -1572.385901)" fill="none" stroke-linejoin="miter" d="M 486.466935 435.880491 L 486.528078 439.443083 " stroke="#000000" stroke-width="0.518" stroke-opacity="1" stroke-miterlimit="4"/><path stroke-linecap="butt" transform="matrix(5.813724, 0, 0, 5.813447, -1936.672768, -1572.385901)" fill="none" stroke-linejoin="miter" d="M 510.324142 446.873324 L 510.28786 451.864447 " stroke="#000000" stroke-width="0.518" stroke-opacity="1" stroke-miterlimit="4"/><path stroke-linecap="butt" transform="matrix(5.813724, 0, 0, 5.813447, -1936.672768, -1572.385901)" fill="none" stroke-linejoin="miter" d="M 405.810532 432.326634 L 405.844128 438.287357 " stroke="#000000" stroke-width="0.518" stroke-opacity="1" stroke-miterlimit="4"/><path stroke-linecap="butt" transform="matrix(5.813724, 0, 0, 5.813447, -1936.672768, -1572.385901)" fill="none" stroke-linejoin="miter" d="M 377.243967 424.988447 C 376.618427 428.11697 376.660085 429.49309 377.313173 430.619251 C 377.85271 431.548535 378.808826 432.30782 380.165395 433.364772 " stroke="#000000" stroke-width="0.518" stroke-opacity="1" stroke-miterlimit="4"/><path stroke-linecap="butt" transform="matrix(5.813724, 0, 0, 5.813447, -1936.672768, -1572.385901)" fill="none" stroke-linejoin="miter" d="M 486.384291 431.076838 L 510.383942 438.630715 " stroke="#000000" stroke-width="0.518" stroke-opacity="1" stroke-miterlimit="4"/><path stroke-linecap="butt" transform="matrix(5.813724, 0, 0, 5.813447, -1936.672768, -1572.385901)" fill="none" stroke-linejoin="miter" d="M 486.315085 427.070098 L 510.406786 435.512943 " stroke="#000000" stroke-width="0.518" stroke-opacity="1" stroke-miterlimit="4"/><path stroke-linecap="butt" transform="matrix(5.813724, 0, 0, 5.813447, -1936.672768, -1572.385901)" fill="none" stroke-linejoin="miter" d="M 486.466935 435.880491 L 510.346987 443.698438 " stroke="#000000" stroke-width="0.518" stroke-opacity="1" stroke-miterlimit="4"/><path stroke-linecap="butt" transform="matrix(5.813724, 0, 0, 5.813447, -1936.672768, -1572.385901)" fill="none" stroke-linejoin="miter" d="M 486.528078 439.443083 L 510.324142 446.873324 " stroke="#000000" stroke-width="0.518" stroke-opacity="1" stroke-miterlimit="4"/><path stroke-linecap="butt" transform="matrix(5.813724, 0, 0, 5.813447, -1936.672768, -1572.385901)" fill="none" stroke-linejoin="miter" d="M 486.604003 443.836857 L 510.28786 451.864447 " stroke="#000000" stroke-width="0.518" stroke-opacity="1" stroke-miterlimit="4"/><path stroke-linecap="butt" transform="matrix(5.813724, 0, 0, 5.813447, -1936.672768, -1572.385901)" fill="none" stroke-linejoin="miter" d="M 486.661115 447.190477 L 510.267703 454.608624 " stroke="#000000" stroke-width="0.518" stroke-opacity="1" stroke-miterlimit="4"/><path stroke-linecap="butt" transform="matrix(5.813724, 0, 0, 5.813447, -1936.672768, -1572.385901)" fill="none" stroke-linejoin="miter" d="M 486.737711 451.645397 L 510.230748 459.675003 " stroke="#000000" stroke-width="0.518" stroke-opacity="1" stroke-miterlimit="4"/><path stroke-linecap="butt" transform="matrix(5.813724, 0, 0, 5.813447, -1936.672768, -1572.385901)" fill="none" stroke-linejoin="miter" d="M 486.802886 455.410241 L 510.209919 462.49914 " stroke="#000000" stroke-width="0.518" stroke-opacity="1" stroke-miterlimit="4"/><path stroke-linecap="butt" transform="matrix(5.813724, 0, 0, 5.813447, -1936.672768, -1572.385901)" fill="none" stroke-linejoin="miter" d="M 486.888217 460.369111 L 510.168261 468.268362 " stroke="#000000" stroke-width="0.518" stroke-opacity="1" stroke-miterlimit="4"/><path stroke-linecap="butt" transform="matrix(5.813724, 0, 0, 5.813447, -1936.672768, -1572.385901)" fill="none" stroke-linejoin="miter" d="M 454.382965 461.114957 L 453.195044 338.235102 L 453.195044 337.31724 L 471.797309 360.632664 L 472.8401 397.169053 L 465.207299 397.169053 L 465.970579 464.305969 " stroke="#000000" stroke-width="0.518" stroke-opacity="1" stroke-miterlimit="4"/><path stroke-linecap="butt" transform="matrix(5.813724, 0, 0, 5.813447, -1936.672768, -1572.385901)" fill="none" stroke-linejoin="miter" d="M 527.477788 479.835699 C 493.944527 477.999976 455.155652 467.61457 430.561369 460.176938 C 405.967085 452.738633 395.568066 448.248101 388.505037 444.522229 C 381.44268 440.796357 377.716314 437.835146 375.804754 435.826064 C 373.893194 433.816983 373.795769 432.760703 374.060498 430.824191 C 374.324555 428.88835 374.950095 426.072948 377.243967 424.988447 " stroke="#000000" stroke-width="0.518" stroke-opacity="1" stroke-miterlimit="4"/><path stroke-linecap="butt" transform="matrix(5.813724, 0, 0, 5.813447, -1936.672768, -1572.385901)" fill="none" stroke-linejoin="miter" d="M 535.402195 478.417247 C 534.790765 479.418428 532.148848 479.890797 527.477788 479.835699 " stroke="#000000" stroke-width="0.518" stroke-opacity="1" stroke-miterlimit="4"/><path stroke-linecap="butt" transform="matrix(5.813724, 0, 0, 5.813447, -1936.672768, -1572.385901)" fill="none" stroke-linejoin="miter" d="M 510.441053 430.782531 L 510.406786 435.512943 " stroke="#000000" stroke-width="0.518" stroke-opacity="1" stroke-miterlimit="4"/><path stroke-linecap="butt" transform="matrix(5.813724, 0, 0, 5.813447, -1936.672768, -1572.385901)" fill="none" stroke-linejoin="miter" d="M 430.046692 379.610084 L 415.156683 358.630302 " stroke="#000000" stroke-width="0.518" stroke-opacity="1" stroke-miterlimit="4"/><path stroke-linecap="butt" transform="matrix(5.813724, 0, 0, 5.813447, -1936.672768, -1572.385901)" fill="none" stroke-linejoin="miter" d="M 416.034858 450.553505 L 415.18759 359.13694 " stroke="#000000" stroke-width="0.518" stroke-opacity="1" stroke-miterlimit="4"/><path stroke-linecap="butt" transform="matrix(5.813724, 0, 0, 5.813447, -1936.672768, -1572.385901)" fill="none" stroke-linejoin="miter" d="M 394.222919 443.367175 C 395.58016 444.065314 397.14569 444.77622 399.003498 445.493845 " stroke="#000000" stroke-width="0.518" stroke-opacity="1" stroke-miterlimit="4"/><path stroke-linecap="butt" transform="matrix(5.813724, 0, 0, 5.813447, -1936.672768, -1572.385901)" fill="none" stroke-linejoin="miter" d="M 486.038262 410.96049 L 486.108812 415.061301 " stroke="#000000" stroke-width="0.518" stroke-opacity="1" stroke-miterlimit="4"/><path stroke-linecap="butt" transform="matrix(5.813724, 0, 0, 5.813447, -1936.672768, -1572.385901)" fill="none" stroke-linejoin="miter" d="M 510.500181 422.654822 L 510.465242 427.533732 " stroke="#000000" stroke-width="0.518" stroke-opacity="1" stroke-miterlimit="4"/><path stroke-linecap="butt" transform="matrix(5.813724, 0, 0, 5.813447, -1936.672768, -1572.385901)" fill="none" stroke-linejoin="miter" d="M 405.866972 442.289393 L 405.89788 447.761621 L 416.034858 450.553505 " stroke="#000000" stroke-width="0.518" stroke-opacity="1" stroke-miterlimit="4"/><path stroke-linecap="butt" transform="matrix(5.813724, 0, 0, 5.813447, -1936.672768, -1572.385901)" fill="none" stroke-linejoin="miter" d="M 510.554605 415.206438 L 510.527057 419.014286 " stroke="#000000" stroke-width="0.518" stroke-opacity="1" stroke-miterlimit="4"/><path stroke-linecap="butt" transform="matrix(5.813724, 0, 0, 5.813447, -1936.672768, -1572.385901)" fill="none" stroke-linejoin="miter" d="M 405.688918 412.059101 L 405.733264 418.518399 " stroke="#000000" stroke-width="0.518" stroke-opacity="1" stroke-miterlimit="4"/><path stroke-linecap="butt" transform="matrix(5.813724, 0, 0, 5.813447, -1936.672768, -1572.385901)" fill="none" stroke-linejoin="miter" d="M 485.894475 402.591557 L 485.979807 407.536988 " stroke="#000000" stroke-width="0.518" stroke-opacity="1" stroke-miterlimit="4"/><path stroke-linecap="butt" transform="matrix(5.813724, 0, 0, 5.813447, -1936.672768, -1572.385901)" fill="none" stroke-linejoin="miter" d="M 510.149448 470.845899 L 510.127275 473.870944 L 535.402195 478.417247 " stroke="#000000" stroke-width="0.518" stroke-opacity="1" stroke-miterlimit="4"/><path stroke-linecap="butt" transform="matrix(5.813724, 0, 0, 5.813447, -1936.672768, -1572.385901)" fill="none" stroke-linejoin="miter" d="M 379.037272 385.532507 L 386.384516 382.229953 " stroke="#000000" stroke-width="0.518" stroke-opacity="1" stroke-miterlimit="4"/><path stroke-linecap="butt" transform="matrix(5.813724, 0, 0, 5.813447, -1936.672768, -1572.385901)" fill="none" stroke-linejoin="miter" d="M 379.032569 390.453749 L 386.371078 387.40653 " stroke="#000000" stroke-width="0.518" stroke-opacity="1" stroke-miterlimit="4"/><path stroke-linecap="butt" transform="matrix(5.813724, 0, 0, 5.813447, -1936.672768, -1572.385901)" fill="none" stroke-linejoin="miter" d="M 389.881763 385.948434 L 405.513552 379.456884 " stroke="#000000" stroke-width="0.518" stroke-opacity="1" stroke-miterlimit="4"/><path stroke-linecap="butt" transform="matrix(5.813724, 0, 0, 5.813447, -1936.672768, -1572.385901)" fill="none" stroke-linejoin="miter" d="M 510.267703 454.608624 L 510.230748 459.675003 " stroke="#000000" stroke-width="0.518" stroke-opacity="1" stroke-miterlimit="4"/><path stroke-linecap="butt" transform="matrix(5.813724, 0, 0, 5.813447, -1936.672768, -1572.385901)" fill="none" stroke-linejoin="miter" d="M 486.24252 422.810711 L 510.441053 430.782531 " stroke="#000000" stroke-width="0.518" stroke-opacity="1" stroke-miterlimit="4"/><path stroke-linecap="butt" transform="matrix(5.813724, 0, 0, 5.813447, -1936.672768, -1572.385901)" fill="none" stroke-linejoin="miter" d="M 486.176674 419.014286 L 510.465242 427.533732 " stroke="#000000" stroke-width="0.518" stroke-opacity="1" stroke-miterlimit="4"/><path stroke-linecap="butt" transform="matrix(5.813724, 0, 0, 5.813447, -1936.672768, -1572.385901)" fill="none" stroke-linejoin="miter" d="M 486.604003 443.836857 L 486.661115 447.190477 " stroke="#000000" stroke-width="0.518" stroke-opacity="1" stroke-miterlimit="4"/><path stroke-linecap="butt" transform="matrix(5.813724, 0, 0, 5.813447, -1936.672768, -1572.385901)" fill="none" stroke-linejoin="miter" d="M 385.260424 437.401077 L 395.523048 432.69687 " stroke="#000000" stroke-width="0.518" stroke-opacity="1" stroke-miterlimit="4"/><path stroke-linecap="butt" transform="matrix(5.813724, 0, 0, 5.813447, -1936.672768, -1572.385901)" fill="none" stroke-linejoin="miter" d="M 397.831702 386.098947 L 397.941222 392.798797 L 405.570664 389.610472 " stroke="#000000" stroke-width="0.518" stroke-opacity="1" stroke-miterlimit="4"/><path stroke-linecap="butt" transform="matrix(5.813724, 0, 0, 5.813447, -1936.672768, -1572.385901)" fill="none" stroke-linejoin="miter" d="M 486.108812 415.061301 L 510.500181 422.654822 " stroke="#000000" stroke-width="0.518" stroke-opacity="1" stroke-miterlimit="4"/><path stroke-linecap="butt" transform="matrix(5.813724, 0, 0, 5.813447, -1936.672768, -1572.385901)" fill="none" stroke-linejoin="miter" d="M 394.804114 387.431391 L 394.909602 394.065392 " stroke="#000000" stroke-width="0.518" stroke-opacity="1" stroke-miterlimit="4"/><path stroke-linecap="butt" transform="matrix(5.813724, 0, 0, 5.813447, -1936.672768, -1572.385901)" fill="none" stroke-linejoin="miter" d="M 379.02921 394.374481 L 379.023162 400.704768 " stroke="#000000" stroke-width="0.518" stroke-opacity="1" stroke-miterlimit="4"/><path stroke-linecap="butt" transform="matrix(5.813724, 0, 0, 5.813447, -1936.672768, -1572.385901)" fill="none" stroke-linejoin="miter" d="M 379.020475 403.726453 L 386.336139 400.898956 " stroke="#000000" stroke-width="0.518" stroke-opacity="1" stroke-miterlimit="4"/><path stroke-linecap="butt" transform="matrix(5.813724, 0, 0, 5.813447, -1936.672768, -1572.385901)" fill="none" stroke-linejoin="miter" d="M 389.807182 399.557105 L 405.592164 393.455948 " stroke="#000000" stroke-width="0.518" stroke-opacity="1" stroke-miterlimit="4"/><path stroke-linecap="butt" transform="matrix(5.813724, 0, 0, 5.813447, -1936.672768, -1572.385901)" fill="none" stroke-linejoin="miter" d="M 379.013756 410.524405 L 386.319341 407.380428 " stroke="#000000" stroke-width="0.518" stroke-opacity="1" stroke-miterlimit="4"/><path stroke-linecap="butt" transform="matrix(5.813724, 0, 0, 5.813447, -1936.672768, -1572.385901)" fill="none" stroke-linejoin="miter" d="M 389.772243 405.894111 L 405.623744 399.071969 " stroke="#000000" stroke-width="0.518" stroke-opacity="1" stroke-miterlimit="4"/><path stroke-linecap="butt" transform="matrix(5.813724, 0, 0, 5.813447, -1936.672768, -1572.385901)" fill="none" stroke-linejoin="miter" d="M 405.531693 382.709714 L 405.570664 389.610472 " stroke="#000000" stroke-width="0.518" stroke-opacity="1" stroke-miterlimit="4"/><path stroke-linecap="butt" transform="matrix(5.813724, 0, 0, 5.813447, -1936.672768, -1572.385901)" fill="none" stroke-linejoin="miter" d="M 405.592164 393.455948 L 405.623744 399.071969 " stroke="#000000" stroke-width="0.518" stroke-opacity="1" stroke-miterlimit="4"/><path stroke-linecap="butt" transform="matrix(5.813724, 0, 0, 5.813447, -1936.672768, -1572.385901)" fill="none" stroke-linejoin="miter" d="M 389.807182 399.557105 L 389.772243 405.894111 " stroke="#000000" stroke-width="0.518" stroke-opacity="1" stroke-miterlimit="4"/><path stroke-linecap="butt" transform="matrix(5.813724, 0, 0, 5.813447, -1936.672768, -1572.385901)" fill="none" stroke-linejoin="miter" d="M 386.336139 400.898956 L 386.319341 407.380428 " stroke="#000000" stroke-width="0.518" stroke-opacity="1" stroke-miterlimit="4"/><path stroke-linecap="butt" transform="matrix(5.813724, 0, 0, 5.813447, -1936.672768, -1572.385901)" fill="none" stroke-linejoin="miter" d="M 379.020475 403.726453 L 379.013756 410.524405 " stroke="#000000" stroke-width="0.518" stroke-opacity="1" stroke-miterlimit="4"/><path stroke-linecap="butt" transform="matrix(5.813724, 0, 0, 5.813447, -1936.672768, -1572.385901)" fill="none" stroke-linejoin="miter" d="M 379.010396 414.065495 L 395.11386 406.92956 " stroke="#000000" stroke-width="0.518" stroke-opacity="1" stroke-miterlimit="4"/><path stroke-linecap="butt" transform="matrix(5.813724, 0, 0, 5.813447, -1936.672768, -1572.385901)" fill="none" stroke-linejoin="miter" d="M 398.150183 405.584349 L 405.641885 402.264325 " stroke="#000000" stroke-width="0.518" stroke-opacity="1" stroke-miterlimit="4"/><path stroke-linecap="butt" transform="matrix(5.813724, 0, 0, 5.813447, -1936.672768, -1572.385901)" fill="none" stroke-linejoin="miter" d="M 379.005021 420.203608 L 395.213974 413.246408 " stroke="#000000" stroke-width="0.518" stroke-opacity="1" stroke-miterlimit="4"/><path stroke-linecap="butt" transform="matrix(5.813724, 0, 0, 5.813447, -1936.672768, -1572.385901)" fill="none" stroke-linejoin="miter" d="M 398.253656 411.941513 L 405.678168 408.755204 " stroke="#000000" stroke-width="0.518" stroke-opacity="1" stroke-miterlimit="4"/><path stroke-linecap="butt" transform="matrix(5.813724, 0, 0, 5.813447, -1936.672768, -1572.385901)" fill="none" stroke-linejoin="miter" d="M 398.150183 405.584349 L 398.253656 411.941513 " stroke="#000000" stroke-width="0.518" stroke-opacity="1" stroke-miterlimit="4"/><path stroke-linecap="butt" transform="matrix(5.813724, 0, 0, 5.813447, -1936.672768, -1572.385901)" fill="none" stroke-linejoin="miter" d="M 395.11386 406.92956 L 395.213974 413.246408 " stroke="#000000" stroke-width="0.518" stroke-opacity="1" stroke-miterlimit="4"/><path stroke-linecap="butt" transform="matrix(5.813724, 0, 0, 5.813447, -1936.672768, -1572.385901)" fill="none" stroke-linejoin="miter" d="M 386.285074 420.519417 L 386.268277 426.933023 " stroke="#000000" stroke-width="0.518" stroke-opacity="1" stroke-miterlimit="4"/><path stroke-linecap="butt" transform="matrix(5.813724, 0, 0, 5.813447, -1936.672768, -1572.385901)" fill="none" stroke-linejoin="miter" d="M 389.70035 419.030412 L 389.664739 425.464848 " stroke="#000000" stroke-width="0.518" stroke-opacity="1" stroke-miterlimit="4"/><path stroke-linecap="butt" transform="matrix(5.813724, 0, 0, 5.813447, -1936.672768, -1572.385901)" fill="none" stroke-linejoin="miter" d="M 379.010396 414.065495 L 379.005021 420.203608 " stroke="#000000" stroke-width="0.518" stroke-opacity="1" stroke-miterlimit="4"/><path stroke-linecap="butt" transform="matrix(5.813724, 0, 0, 5.813447, -1936.672768, -1572.385901)" fill="none" stroke-linejoin="miter" d="M 379.001662 423.694975 L 386.285074 420.519417 " stroke="#000000" stroke-width="0.518" stroke-opacity="1" stroke-miterlimit="4"/><path stroke-linecap="butt" transform="matrix(5.813724, 0, 0, 5.813447, -1936.672768, -1572.385901)" fill="none" stroke-linejoin="miter" d="M 389.70035 419.030412 L 405.688918 412.059101 " stroke="#000000" stroke-width="0.518" stroke-opacity="1" stroke-miterlimit="4"/><path stroke-linecap="butt" transform="matrix(5.813724, 0, 0, 5.813447, -1936.672768, -1572.385901)" fill="none" stroke-linejoin="miter" d="M 379.001662 423.694975 L 378.995615 430.077001 L 386.268277 426.933023 " stroke="#000000" stroke-width="0.518" stroke-opacity="1" stroke-miterlimit="4"/><path stroke-linecap="butt" transform="matrix(5.813724, 0, 0, 5.813447, -1936.672768, -1572.385901)" fill="none" stroke-linejoin="miter" d="M 389.664739 425.464848 L 405.733264 418.518399 " stroke="#000000" stroke-width="0.518" stroke-opacity="1" stroke-miterlimit="4"/><path stroke-linecap="butt" transform="matrix(5.813724, 0, 0, 5.813447, -1936.672768, -1572.385901)" fill="none" stroke-linejoin="miter" d="M 405.641885 402.264325 L 405.678168 408.755204 " stroke="#000000" stroke-width="0.518" stroke-opacity="1" stroke-miterlimit="4"/><path stroke-linecap="butt" transform="matrix(5.813724, 0, 0, 5.813447, -1936.672768, -1572.385901)" fill="none" stroke-linejoin="miter" d="M 379.023162 400.704768 L 394.909602 394.065392 " stroke="#000000" stroke-width="0.518" stroke-opacity="1" stroke-miterlimit="4"/><path stroke-linecap="butt" transform="matrix(5.813724, 0, 0, 5.813447, -1936.672768, -1572.385901)" fill="none" stroke-linejoin="miter" d="M 397.831702 386.098947 L 405.531693 382.709714 " stroke="#000000" stroke-width="0.518" stroke-opacity="1" stroke-miterlimit="4"/><path stroke-linecap="butt" transform="matrix(5.813724, 0, 0, 5.813447, -1936.672768, -1572.385901)" fill="none" stroke-linejoin="miter" d="M 486.038262 410.96049 L 510.527057 419.014286 " stroke="#000000" stroke-width="0.518" stroke-opacity="1" stroke-miterlimit="4"/><path stroke-linecap="butt" transform="matrix(5.813724, 0, 0, 5.813447, -1936.672768, -1572.385901)" fill="none" stroke-linejoin="miter" d="M 486.737711 451.645397 L 486.802886 455.410241 " stroke="#000000" stroke-width="0.518" stroke-opacity="1" stroke-miterlimit="4"/><path stroke-linecap="butt" transform="matrix(5.813724, 0, 0, 5.813447, -1936.672768, -1572.385901)" fill="none" stroke-linejoin="miter" d="M 389.910655 380.644862 L 405.480629 373.64533 L 405.513552 379.456884 " stroke="#000000" stroke-width="0.518" stroke-opacity="1" stroke-miterlimit="4"/><path stroke-linecap="butt" transform="matrix(5.813724, 0, 0, 5.813447, -1936.672768, -1572.385901)" fill="none" stroke-linejoin="miter" d="M 379.037272 385.532507 L 379.032569 390.453749 " stroke="#000000" stroke-width="0.518" stroke-opacity="1" stroke-miterlimit="4"/><path stroke-linecap="butt" transform="matrix(5.813724, 0, 0, 5.813447, -1936.672768, -1572.385901)" fill="none" stroke-linejoin="miter" d="M 485.979807 407.536988 L 510.554605 415.206438 " stroke="#000000" stroke-width="0.518" stroke-opacity="1" stroke-miterlimit="4"/><path stroke-linecap="butt" transform="matrix(5.813724, 0, 0, 5.813447, -1936.672768, -1572.385901)" fill="none" stroke-linejoin="miter" d="M 386.384516 382.229953 L 386.371078 387.40653 " stroke="#000000" stroke-width="0.518" stroke-opacity="1" stroke-miterlimit="4"/><path stroke-linecap="butt" transform="matrix(5.813724, 0, 0, 5.813447, -1936.672768, -1572.385901)" fill="none" stroke-linejoin="miter" d="M 389.910655 380.644862 L 389.881763 385.948434 " stroke="#000000" stroke-width="0.518" stroke-opacity="1" stroke-miterlimit="4"/><path stroke-linecap="butt" transform="matrix(5.813724, 0, 0, 5.813447, -1936.672768, -1572.385901)" fill="none" stroke-linejoin="miter" d="M 510.580809 411.664676 L 485.894475 402.591557 " stroke="#000000" stroke-width="0.518" stroke-opacity="1" stroke-miterlimit="4"/><path stroke-linecap="butt" transform="matrix(5.813724, 0, 0, 5.813447, -1936.672768, -1572.385901)" fill="none" stroke-linejoin="miter" d="M 486.888217 460.369111 L 486.937266 463.235579 L 510.149448 470.845899 " stroke="#000000" stroke-width="0.518" stroke-opacity="1" stroke-miterlimit="4"/><path stroke-linecap="butt" transform="matrix(5.813724, 0, 0, 5.813447, -1936.672768, -1572.385901)" fill="none" stroke-linejoin="miter" d="M 399.003498 445.493845 L 405.866972 442.289393 " stroke="#000000" stroke-width="0.518" stroke-opacity="1" stroke-miterlimit="4"/><path stroke-linecap="butt" transform="matrix(5.813724, 0, 0, 5.813447, -1936.672768, -1572.385901)" fill="none" stroke-linejoin="miter" d="M 415.156683 358.630302 L 449.858381 336.483371 L 449.330938 459.723382 " stroke="#000000" stroke-width="0.518" stroke-opacity="1" stroke-miterlimit="4"/><path stroke-linecap="butt" transform="matrix(5.813724, 0, 0, 5.813447, -1936.672768, -1572.385901)" fill="none" stroke-linejoin="miter" d="M 395.423607 426.418994 L 395.523048 432.69687 " stroke="#000000" stroke-width="0.518" stroke-opacity="1" stroke-miterlimit="4"/><path stroke-linecap="butt" transform="matrix(5.813724, 0, 0, 5.813447, -1936.672768, -1572.385901)" fill="none" stroke-linejoin="miter" d="M 422.706168 369.725269 L 422.7317 452.397962 L 429.976143 454.392933 L 430.046692 379.610084 L 415.156683 358.630302 " stroke="#000000" stroke-width="0.518" stroke-opacity="1" stroke-miterlimit="4"/><path stroke-linecap="butt" transform="matrix(0.867974, 0, 0, 0.867974, 445.424564, 1203.571389)" fill="none" stroke-linejoin="miter" d="M 15.973412 112.000846 C 15.262345 111.150266 14.690791 110.124169 14.25425 108.927056 C 13.840211 107.711941 13.628691 106.460822 13.628691 105.178201 C 15.973412 105.178201 17.625069 104.786664 18.579159 104.00359 C 19.551251 103.225017 20.037297 101.834385 20.037297 99.840697 L 20.037297 49.710459 C 20.037297 47.71677 19.551251 46.308137 18.579159 45.49356 C 17.625069 44.678983 15.973412 44.269444 13.628691 44.269444 C 13.628691 43.054329 13.840211 41.848215 14.25425 40.651102 C 14.690791 39.435987 15.262345 38.40089 15.973412 37.550309 L 41.882361 37.550309 C 42.593428 38.40089 43.160482 39.435987 43.574521 40.651102 C 44.011062 41.848215 44.227083 43.054329 44.227083 44.269444 C 41.882361 44.269444 40.235206 44.678983 39.281115 45.49356 C 38.322525 46.308137 37.84548 47.71677 37.84548 49.710459 L 37.84548 99.840697 C 37.84548 101.834385 38.322525 103.225017 39.281115 104.00359 C 40.235206 104.786664 41.882361 105.178201 44.227083 105.178201 C 44.227083 106.460822 44.011062 107.711941 43.574521 108.927056 C 43.160482 110.124169 42.593428 111.150266 41.882361 112.000846 Z M 81.990152 99.840697 C 81.990152 103.46804 84.582397 105.281711 89.775888 105.281711 C 89.775888 107.765946 88.956811 110.002657 87.327657 112.000846 L 65.14056 112.000846 C 63.578912 110.074664 62.795838 107.833452 62.795838 105.281711 C 65.280073 105.281711 67.129748 104.854171 68.344862 104.00359 C 69.559977 103.15301 70.167535 101.766879 70.167535 99.840697 L 70.167535 49.710459 C 70.167535 46.083116 67.561788 44.269444 62.354796 44.269444 C 62.354796 43.054329 62.570817 41.848215 63.007358 40.651102 C 63.439399 39.435987 64.010953 38.40089 64.72652 37.550309 L 79.541921 37.550309 C 81.607616 37.550309 83.66431 38.351385 85.712004 39.949036 C 87.777699 41.542187 89.739885 43.765397 91.59856 46.614166 L 115.815349 84.917286 L 115.815349 49.710459 C 115.815349 47.784277 115.171788 46.398146 113.889167 45.547565 C 112.602045 44.696985 110.720868 44.269444 108.236633 44.269444 C 108.236633 42.986823 108.443652 41.762707 108.862192 40.597097 C 109.294233 39.417986 109.90179 38.40089 110.684864 37.550309 L 133.394011 37.550309 C 134.172584 38.40089 134.780142 39.435987 135.216683 40.651102 C 135.648724 41.848215 135.864744 43.054329 135.864744 44.269444 C 133.434514 44.269444 131.593841 44.696985 130.347223 45.547565 C 129.114106 46.398146 128.497548 47.784277 128.497548 49.710459 L 128.497548 112.648907 L 124.226644 112.648907 C 120.734314 112.648907 118.173572 112.207866 116.544418 111.321282 C 114.910764 110.421197 113.349116 108.86855 111.854975 106.663342 L 81.990152 61.326056 Z M 188.555724 113.485986 C 181.076017 113.485986 174.554901 111.888335 169.001376 108.693033 C 163.461353 105.497731 159.19945 101.055812 156.215668 95.358273 C 153.227385 89.665235 151.737744 83.15762 151.737744 75.830927 C 151.737744 67.307122 153.213884 60.09294 156.161663 54.192882 C 159.113942 48.288324 163.21833 43.846404 168.479327 40.858122 C 173.758326 37.87434 179.842901 36.380199 186.733052 36.380199 C 191.210975 36.380199 195.517882 37.158772 199.649273 38.72492 C 200.706873 38.220873 202.246018 37.725826 204.257708 37.23978 C 206.291901 36.735732 207.880551 36.447705 209.023659 36.380199 C 211.089354 41.641196 212.124452 49.678956 212.124452 60.493478 L 201.759972 60.493478 C 201.048905 55.925546 199.284738 52.401713 196.471973 49.921979 C 193.677208 47.437744 190.328892 46.195626 186.422523 46.195626 C 181.715078 46.195626 178.029229 48.211817 175.355977 52.239698 C 172.700726 56.249577 171.3686 63.193733 171.3686 73.072167 C 171.3686 84.026202 172.682724 91.775934 175.301972 96.325865 C 177.939221 100.871294 181.958101 103.148509 187.358611 103.148509 C 189.3568 103.148509 191.030958 102.936989 192.385586 102.52295 C 193.740214 102.086409 194.874322 101.375342 195.796909 100.385248 L 195.796909 88.225099 C 195.796909 86.366423 194.995833 85.029797 193.398182 84.21522 C 191.805031 83.400643 189.293794 82.991104 185.873471 82.991104 C 185.873471 81.708483 186.116494 80.214342 186.60254 78.513181 C 187.106587 76.81202 187.714145 75.560902 188.425212 74.764327 L 211.47189 74.764327 C 214.248653 74.764327 216.170334 75.587904 217.227934 77.23506 C 218.303536 78.868715 218.843587 80.430362 218.843587 81.924503 C 218.843587 82.635571 218.65907 83.279131 218.294535 83.850685 C 215.742794 83.850685 213.753606 84.129712 212.331472 84.683264 L 212.331472 96.946923 C 212.331472 99.24214 212.723009 100.844292 213.501582 101.766879 C 214.00563 102.252925 214.257654 102.896486 214.257654 103.693061 C 214.257654 104.962181 213.078542 106.375314 210.715819 107.936962 C 208.375598 109.49861 205.2298 110.821735 201.291928 111.897336 C 197.349556 112.954936 193.105654 113.485986 188.555724 113.485986 Z M 188.555724 113.485986 " stroke="#000000" stroke-width="3.333344" stroke-opacity="1" stroke-miterlimit="4"/><path stroke-linecap="butt" transform="matrix(0.867974, 0, 0, 0.867974, 445.424564, 1203.571389)" fill="none" stroke-linejoin="miter" d="M 274.306829 72.523115 C 280.206887 72.523115 284.954836 74.111765 288.550676 77.289065 C 292.142015 80.448364 293.937685 85.047799 293.937685 91.09187 C 293.937685 95.43028 292.583057 99.24214 289.878301 102.52295 C 287.169045 105.785759 283.41119 108.328499 278.600235 110.151171 C 273.811783 111.955842 268.39327 112.860427 262.3537 112.860427 C 257.371729 112.860427 252.925308 112.216866 249.018939 110.934245 C 245.11257 109.647124 242.04328 107.797449 239.802068 105.385221 C 237.560856 102.972993 236.44025 100.124224 236.44025 96.843413 C 236.44025 93.859631 237.277329 91.550913 238.942487 89.917259 C 240.607644 88.288105 242.727345 87.469027 245.297087 87.469027 C 247.709315 87.469027 249.680502 88.180095 251.206146 89.606729 C 252.736291 91.028864 253.496862 92.775029 253.496862 94.840724 C 253.496862 95.96583 253.244839 97.176445 252.745291 98.459066 C 252.259245 99.741687 251.521176 100.812789 250.531082 101.663369 C 251.309656 102.302429 252.502268 102.711968 254.095419 102.887485 C 255.69307 103.058501 257.880277 103.148509 260.66154 103.148509 C 264.981948 103.148509 268.316763 102.059406 270.656984 99.890201 C 273.019708 97.720996 274.198819 94.750716 274.198819 90.98386 C 274.198819 86.870471 273.168222 83.391642 271.102526 80.542873 C 269.036831 77.698604 265.832528 76.240466 261.494118 76.168459 C 258.802864 76.879527 256.710166 77.374573 255.216025 77.6536 L 253.082823 71.249494 C 259.401421 69.61584 263.73083 67.595149 266.075551 65.178421 C 268.438275 62.766193 269.617386 59.782411 269.617386 56.222574 C 269.617386 52.802251 268.636293 50.025488 266.674108 47.887786 C 264.711922 45.754585 262.133179 44.687984 258.942377 44.687984 C 257.16921 44.687984 255.661567 44.940008 254.410449 45.439555 C 253.159331 45.943603 252.038725 46.839187 251.053131 48.121808 C 252.038725 48.540348 252.907307 49.269417 253.654377 50.309015 C 254.401448 51.335112 254.774983 52.523224 254.774983 53.877852 C 254.774983 55.65102 254.027913 57.280174 252.533771 58.774315 C 251.044131 60.268456 249.018939 61.015527 246.467198 61.015527 C 243.757942 61.015527 241.660744 60.164947 240.166602 58.463786 C 238.672461 56.762625 237.925391 54.557417 237.925391 51.848161 C 237.925391 48.724865 239.063998 46.006609 241.336713 43.69789 C 243.613928 41.37117 246.669717 39.607004 250.50408 38.40989 C 254.356444 37.194776 258.595844 36.587218 263.213281 36.587218 C 270.746993 36.587218 276.85857 38.117363 281.543513 41.173152 C 286.246458 44.22444 288.60018 48.382833 288.60018 53.64383 C 288.60018 57.496194 287.349062 61.006526 284.851326 64.165825 C 282.367091 67.325123 278.073685 70.155891 271.962108 72.653627 Z M 342.13724 113.170957 C 340.503586 113.170957 338.514398 113.067447 336.174177 112.860427 C 328.550456 112.284373 321.867325 112.000846 316.120281 112.000846 C 314.540632 110.002657 313.753058 107.729942 313.753058 105.178201 C 316.111281 105.178201 317.807941 104.768663 318.829537 103.954086 C 319.855634 103.139509 320.368683 101.730875 320.368683 99.737187 L 320.368683 49.606949 C 320.368683 47.680767 319.855634 46.308137 318.829537 45.49356 C 317.807941 44.678983 316.111281 44.269444 313.753058 44.269444 C 313.753058 41.560188 314.540632 39.323477 316.120281 37.550309 C 321.520792 37.550309 326.390252 37.410796 330.728662 37.13627 C 335.071573 36.839242 337.632315 36.659225 338.410888 36.587218 C 340.823116 36.380199 342.56028 36.276689 343.622381 36.276689 C 351.520627 36.276689 358.149754 37.914844 363.514261 41.195654 C 368.89677 44.462963 372.879646 48.886881 375.467391 54.476409 C 378.073137 60.047936 379.37376 66.281025 379.37376 73.175676 C 379.37376 80.776895 378.037134 87.590539 375.363881 93.616608 C 372.690628 99.620176 368.577239 104.386126 363.019214 107.909959 C 357.483691 111.420291 350.521533 113.170957 342.13724 113.170957 Z M 341.277659 104.31862 C 347.402738 104.31862 352.119184 101.9919 355.417996 97.33846 C 358.716807 92.68502 360.363963 85.160309 360.363963 74.764327 C 360.363963 64.74638 358.599796 57.253171 355.075963 52.289202 C 351.570132 47.307231 346.68267 44.818496 340.418078 44.818496 C 339.220965 44.818496 338.370384 44.886003 337.866337 45.025516 L 337.866337 104.1116 C 338.577404 104.246613 339.716012 104.31862 341.277659 104.31862 Z M 341.277659 104.31862 " stroke="#000000" stroke-width="3.333344" stroke-opacity="1" stroke-miterlimit="4"/><path stroke-linecap="butt" transform="matrix(0.867974, 0, 0, 0.867974, 445.424564, 1203.571389)" fill="none" stroke-linejoin="miter" d="M 456.907088 95.569793 C 457.690162 98.279049 458.702758 100.290739 459.953876 101.609364 C 461.204994 102.909987 462.820647 103.711063 464.796334 104.00359 L 464.796334 109.345595 C 463.16718 111.61831 460.075388 112.756918 455.525458 112.756918 C 451.259054 112.756918 447.897237 112.04135 445.449005 110.619215 C 443.000774 109.197081 441.187102 107.329405 440.007991 105.020686 C 438.828879 102.711968 437.744277 99.674181 436.754183 95.907325 C 435.692083 91.703928 434.557976 88.216098 433.342861 85.439336 C 432.127746 82.662573 430.561598 80.952411 428.653418 80.308851 L 421.596751 80.308851 L 421.596751 99.840697 C 421.596751 101.694872 422.276315 103.067502 423.626443 103.954086 C 424.981071 104.840669 426.763239 105.281711 428.968447 105.281711 C 428.968447 107.833452 428.185373 110.074664 426.623726 112.000846 L 399.855196 112.000846 C 398.221541 110.002657 397.406964 107.765946 397.406964 105.281711 C 399.819192 105.281711 401.574358 104.854171 402.667962 104.00359 C 403.775066 103.15301 404.333119 101.766879 404.333119 99.840697 L 404.333119 49.710459 C 404.333119 47.784277 403.761565 46.398146 402.613957 45.547565 C 401.48435 44.696985 399.706682 44.269444 397.276452 44.269444 C 397.276452 41.420675 397.987519 39.183964 399.409654 37.550309 C 404.117099 37.550309 409.382596 37.410796 415.219648 37.13627 C 420.336632 36.839242 424.351011 36.690728 427.249285 36.690728 C 447.595708 36.690728 457.766669 43.558377 457.766669 57.289175 C 457.766669 67.739163 452.222145 74.102764 441.128597 76.375479 C 444.319398 77.298066 447.375187 79.521276 450.291463 83.045109 C 453.207738 86.568942 455.412947 90.740837 456.907088 95.569793 Z M 426.308696 72.964156 C 430.561598 72.964156 433.896413 71.636531 436.308641 68.98128 C 438.738871 66.308027 439.953986 62.766193 439.953986 58.355776 C 439.953986 53.810346 438.905387 50.417025 436.803688 48.175814 C 434.701989 45.934602 431.380675 44.818496 426.830745 44.818496 C 424.418517 44.818496 422.672352 44.953509 421.596751 45.232535 L 421.596751 72.757137 C 422.883872 72.89665 424.454521 72.964156 426.308696 72.964156 Z M 540.304471 89.50322 C 540.304471 91.843441 539.732917 96.019836 538.585308 102.027903 C 537.460202 108.031471 536.434105 111.928839 535.511518 113.720009 C 534.386411 113.42298 532.89227 112.851426 531.033594 112.000846 L 481.663928 112.000846 C 480.012272 109.863144 479.188694 107.626433 479.188694 105.281711 C 481.618924 105.281711 483.401092 104.854171 484.526199 104.00359 C 485.673807 103.15301 486.245361 101.730875 486.245361 99.737187 L 486.245361 49.710459 C 486.245361 47.784277 485.691809 46.398146 484.580204 45.547565 C 483.4866 44.696985 481.731434 44.269444 479.319206 44.269444 C 479.319206 41.924723 480.133783 39.688011 481.767438 37.550309 L 523.144349 37.550309 C 524.359464 36.978755 525.768097 36.537714 527.361247 36.222684 C 528.958898 35.894153 530.435038 35.727637 531.789666 35.727637 C 532.847266 37.793332 534.003875 40.642101 535.254993 44.269444 C 536.501611 47.896787 537.12717 50.529536 537.12717 52.15869 C 536.258588 52.941764 534.79145 53.765342 532.725754 54.633924 C 530.678061 55.484504 528.909394 56.047057 527.415252 56.326084 C 526.497166 53.688835 525.039028 51.411619 523.040839 49.503439 C 521.04265 47.577257 518.733932 46.614166 516.114684 46.614166 L 504.058045 46.614166 L 504.058045 69.111792 L 511.740271 69.111792 C 516.357707 69.111792 518.666425 66.515047 518.666425 61.326056 C 521.861727 61.326056 524.742 62.073127 527.311743 63.567268 L 527.311743 83.409644 C 526.164134 84.120711 524.845509 84.674263 523.351368 85.074801 C 521.861727 85.457337 520.331583 85.646355 518.769935 85.646355 C 518.769935 82.955101 518.126374 80.93441 516.843753 79.579782 C 515.574633 78.225154 513.909476 77.55009 511.843781 77.55009 L 504.058045 77.55009 L 504.058045 102.62646 L 516.947263 102.62646 C 519.949047 102.62646 522.545792 101.366341 524.732999 98.850603 C 526.938207 96.316864 528.328839 93.198069 528.900393 89.50322 Z M 601.420247 61.326056 C 600.794688 56.569107 599.503066 52.766247 597.54088 49.921979 C 595.578695 47.073209 593.071958 45.651075 590.016169 45.651075 C 585.677759 45.651075 582.221432 47.698768 579.65169 51.794156 C 577.099948 55.876041 575.826328 62.185638 575.826328 70.727445 C 575.826328 81.03792 577.811016 88.580632 581.789392 93.355584 C 585.781269 98.112533 590.943257 100.488758 597.279856 100.488758 C 600.335645 100.488758 603.0359 99.926205 605.380621 98.796598 C 607.725343 97.65349 609.3905 96.289861 610.380594 94.710212 C 611.249176 95.353773 611.960243 96.316864 612.513796 97.599485 C 613.08985 98.886607 613.373377 100.056717 613.373377 101.114317 C 613.373377 102.905486 612.464291 104.759662 610.641619 106.685844 C 608.832448 108.598525 606.222201 110.209677 602.801878 111.532802 C 599.399556 112.833425 595.457183 113.485986 590.97926 113.485986 C 584.728169 113.485986 579.02613 112.027849 573.873143 109.111573 C 568.715656 106.195297 564.602267 101.793881 561.528477 95.907325 C 558.472688 90.002767 556.947044 82.851591 556.947044 74.449297 C 556.947044 66.272024 558.333175 59.327868 561.109937 53.616828 C 563.8912 47.887786 567.779567 43.58538 572.77954 40.700607 C 577.793014 37.820335 583.643567 36.380199 590.326699 36.380199 C 591.906348 36.380199 593.688516 36.596219 595.668703 37.03276 C 597.662392 37.446799 599.408557 38.009353 600.902698 38.72492 C 601.960298 38.220873 603.521946 37.725826 605.587641 37.23978 C 607.653336 36.735732 609.250987 36.447705 610.380594 36.380199 C 612.446289 41.429676 613.476887 49.746462 613.476887 61.326056 Z M 662.972565 113.377976 C 656.14992 113.377976 650.263364 111.798327 645.317396 108.639028 C 640.38943 105.47973 636.604573 100.983805 633.962823 95.151254 C 631.325574 89.318702 630.006949 82.568064 630.006949 74.894839 C 630.006949 66.857079 631.361577 59.935425 634.066333 54.138877 C 636.775589 48.342329 640.59645 43.913911 645.524416 40.858122 C 650.474884 37.802333 656.25343 36.276689 662.869055 36.276689 C 669.6917 36.276689 675.591758 37.87434 680.573728 41.065141 C 685.5602 44.260443 689.37656 48.756368 692.031811 54.557417 C 694.705064 60.353965 696.04169 67.131605 696.04169 74.894839 C 696.04169 82.84259 694.673561 89.71924 691.928302 95.515788 C 689.187543 101.316836 685.321677 105.740754 680.339706 108.796543 C 675.375737 111.852332 669.58819 113.377976 662.972565 113.377976 Z M 662.972565 105.59224 C 666.878934 105.59224 670.056234 103.355529 672.504466 98.877606 C 674.970699 94.395182 676.199315 86.253913 676.199315 74.449297 C 676.199315 63.216235 675.065208 55.362993 672.787993 50.88507 C 670.515278 46.407146 667.310975 44.165935 663.179584 44.165935 C 659.273215 44.165935 656.091414 46.407146 653.625181 50.88507 C 651.17695 55.362993 649.952834 63.468259 649.952834 75.205368 C 649.952834 86.43843 651.109444 94.309674 653.418162 98.823601 C 655.740381 103.337527 658.926682 105.59224 662.972565 105.59224 Z M 662.972565 105.59224 " stroke="#000000" stroke-width="3.333344" stroke-opacity="1" stroke-miterlimit="4"/><g fill="#000000" fill-opacity="1"><g transform="translate(454.56541, 1300.784422)"><g><path d="M 4.71875 0 C 4.101562 -0.738281 3.609375 -1.632812 3.234375 -2.6875 C 2.867188 -3.738281 2.6875 -4.816406 2.6875 -5.921875 C 4.71875 -5.921875 6.148438 -6.257812 6.984375 -6.9375 C 7.816406 -7.625 8.234375 -8.828125 8.234375 -10.546875 L 8.234375 -54.0625 C 8.234375 -55.789062 7.816406 -57.007812 6.984375 -57.71875 C 6.148438 -58.425781 4.71875 -58.78125 2.6875 -58.78125 C 2.6875 -59.832031 2.867188 -60.882812 3.234375 -61.9375 C 3.609375 -62.988281 4.101562 -63.882812 4.71875 -64.625 L 27.21875 -64.625 C 27.832031 -63.882812 28.320312 -62.988281 28.6875 -61.9375 C 29.0625 -60.882812 29.25 -59.832031 29.25 -58.78125 C 27.21875 -58.78125 25.785156 -58.425781 24.953125 -57.71875 C 24.117188 -57.007812 23.703125 -55.789062 23.703125 -54.0625 L 23.703125 -10.546875 C 23.703125 -8.828125 24.117188 -7.625 24.953125 -6.9375 C 25.785156 -6.257812 27.21875 -5.921875 29.25 -5.921875 C 29.25 -4.816406 29.0625 -3.738281 28.6875 -2.6875 C 28.320312 -1.632812 27.832031 -0.738281 27.21875 0 Z M 4.71875 0 "/></g></g></g><g fill="#000000" fill-opacity="1"><g transform="translate(497.150913, 1300.784422)"><g><path d="M 19.4375 -10.546875 C 19.4375 -7.398438 21.691406 -5.828125 26.203125 -5.828125 C 26.203125 -3.671875 25.492188 -1.726562 24.078125 0 L 4.8125 0 C 3.457031 -1.664062 2.78125 -3.609375 2.78125 -5.828125 C 4.9375 -5.828125 6.539062 -6.195312 7.59375 -6.9375 C 8.644531 -7.675781 9.171875 -8.878906 9.171875 -10.546875 L 9.171875 -54.0625 C 9.171875 -57.207031 6.914062 -58.78125 2.40625 -58.78125 C 2.40625 -59.832031 2.585938 -60.882812 2.953125 -61.9375 C 3.328125 -62.988281 3.820312 -63.882812 4.4375 -64.625 L 17.3125 -64.625 C 19.101562 -64.625 20.890625 -63.925781 22.671875 -62.53125 C 24.460938 -61.144531 26.164062 -59.21875 27.78125 -56.75 L 48.78125 -23.515625 L 48.78125 -54.0625 C 48.78125 -55.726562 48.222656 -56.929688 47.109375 -57.671875 C 46.003906 -58.410156 44.375 -58.78125 42.21875 -58.78125 C 42.21875 -59.894531 42.398438 -60.960938 42.765625 -61.984375 C 43.140625 -63.003906 43.664062 -63.882812 44.34375 -64.625 L 64.0625 -64.625 C 64.738281 -63.882812 65.257812 -62.988281 65.625 -61.9375 C 66 -60.882812 66.1875 -59.832031 66.1875 -58.78125 C 64.09375 -58.78125 62.503906 -58.410156 61.421875 -57.671875 C 60.347656 -56.929688 59.8125 -55.726562 59.8125 -54.0625 L 59.8125 0.5625 L 56.109375 0.5625 C 53.078125 0.5625 50.851562 0.175781 49.4375 -0.59375 C 48.019531 -1.375 46.660156 -2.71875 45.359375 -4.625 L 19.4375 -43.96875 Z M 19.4375 -10.546875 "/></g></g></g><g fill="#000000" fill-opacity="1"><g transform="translate(574.822291, 1300.784422)"><g><path d="M 34.25 1.296875 C 27.769531 1.296875 22.125 -0.0859375 17.3125 -2.859375 C 12.5 -5.640625 8.796875 -9.5 6.203125 -14.4375 C 3.609375 -19.375 2.3125 -25.023438 2.3125 -31.390625 C 2.3125 -38.796875 3.59375 -45.054688 6.15625 -50.171875 C 8.71875 -55.296875 12.28125 -59.15625 16.84375 -61.75 C 21.414062 -64.34375 26.695312 -65.640625 32.6875 -65.640625 C 36.570312 -65.640625 40.300781 -64.957031 43.875 -63.59375 C 44.800781 -64.03125 46.144531 -64.460938 47.90625 -64.890625 C 49.664062 -65.328125 51.039062 -65.578125 52.03125 -65.640625 C 53.820312 -61.066406 54.71875 -54.09375 54.71875 -44.71875 L 45.734375 -44.71875 C 45.117188 -48.664062 43.59375 -51.71875 41.15625 -53.875 C 38.71875 -56.039062 35.800781 -57.125 32.40625 -57.125 C 28.332031 -57.125 25.132812 -55.378906 22.8125 -51.890625 C 20.5 -48.398438 19.34375 -42.367188 19.34375 -33.796875 C 19.34375 -24.285156 20.484375 -17.554688 22.765625 -13.609375 C 25.054688 -9.660156 28.546875 -7.6875 33.234375 -7.6875 C 34.960938 -7.6875 36.410156 -7.867188 37.578125 -8.234375 C 38.753906 -8.609375 39.742188 -9.226562 40.546875 -10.09375 L 40.546875 -20.640625 C 40.546875 -22.242188 39.851562 -23.398438 38.46875 -24.109375 C 37.082031 -24.828125 34.90625 -25.1875 31.9375 -25.1875 C 31.9375 -26.289062 32.148438 -27.582031 32.578125 -29.0625 C 33.015625 -30.550781 33.539062 -31.632812 34.15625 -32.3125 L 54.15625 -32.3125 C 56.5625 -32.3125 58.226562 -31.597656 59.15625 -30.171875 C 60.082031 -28.753906 60.546875 -27.398438 60.546875 -26.109375 C 60.546875 -25.492188 60.390625 -24.9375 60.078125 -24.4375 C 57.859375 -24.4375 56.132812 -24.191406 54.90625 -23.703125 L 54.90625 -13.046875 C 54.90625 -11.078125 55.242188 -9.691406 55.921875 -8.890625 C 56.347656 -8.453125 56.5625 -7.894531 56.5625 -7.21875 C 56.5625 -6.113281 55.539062 -4.878906 53.5 -3.515625 C 51.46875 -2.160156 48.738281 -1.019531 45.3125 -0.09375 C 41.882812 0.832031 38.195312 1.296875 34.25 1.296875 Z M 34.25 1.296875 "/></g></g></g><g fill="#fe5a00" fill-opacity="1"><g transform="translate(646.943605, 1300.784422)"><g><path d="M 36.5625 -34.25 C 41.6875 -34.25 45.804688 -32.875 48.921875 -30.125 C 52.046875 -27.382812 53.609375 -23.390625 53.609375 -18.140625 C 53.609375 -14.378906 52.429688 -11.078125 50.078125 -8.234375 C 47.734375 -5.398438 44.476562 -3.195312 40.3125 -1.625 C 36.144531 -0.0507812 31.441406 0.734375 26.203125 0.734375 C 21.878906 0.734375 18.019531 0.179688 14.625 -0.921875 C 11.226562 -2.035156 8.554688 -3.640625 6.609375 -5.734375 C 4.671875 -7.835938 3.703125 -10.304688 3.703125 -13.140625 C 3.703125 -15.734375 4.425781 -17.738281 5.875 -19.15625 C 7.320312 -20.582031 9.160156 -21.296875 11.390625 -21.296875 C 13.484375 -21.296875 15.191406 -20.675781 16.515625 -19.4375 C 17.847656 -18.207031 18.515625 -16.695312 18.515625 -14.90625 C 18.515625 -13.914062 18.296875 -12.863281 17.859375 -11.75 C 17.429688 -10.644531 16.785156 -9.722656 15.921875 -8.984375 C 16.597656 -8.421875 17.628906 -8.0625 19.015625 -7.90625 C 20.410156 -7.757812 22.3125 -7.6875 24.71875 -7.6875 C 28.476562 -7.6875 31.375 -8.625 33.40625 -10.5 C 35.445312 -12.382812 36.46875 -14.960938 36.46875 -18.234375 C 36.46875 -21.816406 35.570312 -24.84375 33.78125 -27.3125 C 32 -29.78125 29.222656 -31.046875 25.453125 -31.109375 C 23.109375 -30.492188 21.289062 -30.0625 20 -29.8125 L 18.140625 -35.359375 C 23.640625 -36.785156 27.40625 -38.546875 29.4375 -40.640625 C 31.476562 -42.742188 32.5 -45.335938 32.5 -48.421875 C 32.5 -51.378906 31.648438 -53.785156 29.953125 -55.640625 C 28.253906 -57.492188 26.015625 -58.421875 23.234375 -58.421875 C 21.691406 -58.421875 20.378906 -58.203125 19.296875 -57.765625 C 18.222656 -57.335938 17.253906 -56.566406 16.390625 -55.453125 C 17.253906 -55.085938 18.007812 -54.457031 18.65625 -53.5625 C 19.300781 -52.664062 19.625 -51.628906 19.625 -50.453125 C 19.625 -48.910156 18.972656 -47.488281 17.671875 -46.1875 C 16.378906 -44.894531 14.625 -44.25 12.40625 -44.25 C 10.0625 -44.25 8.238281 -44.988281 6.9375 -46.46875 C 5.644531 -47.957031 5 -49.875 5 -52.21875 C 5 -54.925781 5.984375 -57.285156 7.953125 -59.296875 C 9.929688 -61.304688 12.585938 -62.832031 15.921875 -63.875 C 19.253906 -64.925781 22.925781 -65.453125 26.9375 -65.453125 C 33.476562 -65.453125 38.785156 -64.125 42.859375 -61.46875 C 46.929688 -58.8125 48.96875 -55.203125 48.96875 -50.640625 C 48.96875 -47.304688 47.890625 -44.265625 45.734375 -41.515625 C 43.578125 -38.773438 39.84375 -36.320312 34.53125 -34.15625 Z M 36.5625 -34.25 "/></g></g></g><g fill="#fe5a00" fill-opacity="1"><g transform="translate(715.357495, 1300.784422)"><g><path d="M 27.03125 1.015625 C 25.613281 1.015625 23.882812 0.921875 21.84375 0.734375 C 15.238281 0.242188 9.4375 0 4.4375 0 C 3.082031 -1.726562 2.40625 -3.703125 2.40625 -5.921875 C 4.445312 -5.921875 5.910156 -6.273438 6.796875 -6.984375 C 7.691406 -7.691406 8.140625 -8.910156 8.140625 -10.640625 L 8.140625 -54.15625 C 8.140625 -55.820312 7.691406 -57.007812 6.796875 -57.71875 C 5.910156 -58.425781 4.445312 -58.78125 2.40625 -58.78125 C 2.40625 -61.132812 3.082031 -63.082031 4.4375 -64.625 C 9.132812 -64.625 13.363281 -64.742188 17.125 -64.984375 C 20.894531 -65.234375 23.117188 -65.390625 23.796875 -65.453125 C 25.890625 -65.640625 27.398438 -65.734375 28.328125 -65.734375 C 35.179688 -65.734375 40.9375 -64.3125 45.59375 -61.46875 C 50.25 -58.632812 53.703125 -54.789062 55.953125 -49.9375 C 58.210938 -45.09375 59.34375 -39.679688 59.34375 -33.703125 C 59.34375 -27.097656 58.1875 -21.1875 55.875 -15.96875 C 53.5625 -10.75 49.992188 -6.613281 45.171875 -3.5625 C 40.359375 -0.507812 34.3125 1.015625 27.03125 1.015625 Z M 26.296875 -6.671875 C 31.597656 -6.671875 35.679688 -8.691406 38.546875 -12.734375 C 41.421875 -16.773438 42.859375 -23.300781 42.859375 -32.3125 C 42.859375 -41.007812 41.332031 -47.519531 38.28125 -51.84375 C 35.226562 -56.164062 30.984375 -58.328125 25.546875 -58.328125 C 24.503906 -58.328125 23.765625 -58.265625 23.328125 -58.140625 L 23.328125 -6.84375 C 23.941406 -6.726562 24.929688 -6.671875 26.296875 -6.671875 Z M 26.296875 -6.671875 "/></g></g></g><g fill="#000000" fill-opacity="1"><g transform="translate(787.85368, 1300.784422)"><g><path d="M 54.15625 -14.25 C 54.832031 -11.90625 55.710938 -10.160156 56.796875 -9.015625 C 57.878906 -7.878906 59.285156 -7.1875 61.015625 -6.9375 L 61.015625 -2.3125 C 59.585938 -0.34375 56.898438 0.640625 52.953125 0.640625 C 49.253906 0.640625 46.335938 0.0234375 44.203125 -1.203125 C 42.078125 -2.441406 40.503906 -4.0625 39.484375 -6.0625 C 38.460938 -8.070312 37.519531 -10.710938 36.65625 -13.984375 C 35.726562 -17.617188 34.738281 -20.640625 33.6875 -23.046875 C 32.644531 -25.453125 31.289062 -26.9375 29.625 -27.5 L 23.515625 -27.5 L 23.515625 -10.546875 C 23.515625 -8.941406 24.097656 -7.753906 25.265625 -6.984375 C 26.441406 -6.210938 27.988281 -5.828125 29.90625 -5.828125 C 29.90625 -3.609375 29.222656 -1.664062 27.859375 0 L 4.625 0 C 3.207031 -1.726562 2.5 -3.671875 2.5 -5.828125 C 4.59375 -5.828125 6.117188 -6.195312 7.078125 -6.9375 C 8.035156 -7.675781 8.515625 -8.878906 8.515625 -10.546875 L 8.515625 -54.0625 C 8.515625 -55.726562 8.019531 -56.929688 7.03125 -57.671875 C 6.050781 -58.410156 4.507812 -58.78125 2.40625 -58.78125 C 2.40625 -61.25 3.023438 -63.195312 4.265625 -64.625 C 8.335938 -64.625 12.898438 -64.742188 17.953125 -64.984375 C 22.398438 -65.234375 25.890625 -65.359375 28.421875 -65.359375 C 46.078125 -65.359375 54.90625 -59.40625 54.90625 -47.5 C 54.90625 -38.425781 50.085938 -32.898438 40.453125 -30.921875 C 43.234375 -30.117188 45.890625 -28.1875 48.421875 -25.125 C 50.953125 -22.070312 52.863281 -18.445312 54.15625 -14.25 Z M 27.59375 -33.890625 C 31.289062 -33.890625 34.1875 -35.046875 36.28125 -37.359375 C 38.382812 -39.671875 39.4375 -42.738281 39.4375 -46.5625 C 39.4375 -50.507812 38.523438 -53.457031 36.703125 -55.40625 C 34.878906 -57.351562 31.992188 -58.328125 28.046875 -58.328125 C 25.953125 -58.328125 24.441406 -58.203125 23.515625 -57.953125 L 23.515625 -34.0625 C 24.628906 -33.945312 25.988281 -33.890625 27.59375 -33.890625 Z M 27.59375 -33.890625 "/></g></g></g><g fill="#000000" fill-opacity="1"><g transform="translate(858.95224, 1300.784422)"><g><path d="M 55.453125 -19.53125 C 55.453125 -17.5 54.957031 -13.875 53.96875 -8.65625 C 52.976562 -3.4375 52.082031 -0.0546875 51.28125 1.484375 C 50.300781 1.234375 49.007812 0.738281 47.40625 0 L 4.53125 0 C 3.113281 -1.851562 2.40625 -3.796875 2.40625 -5.828125 C 4.507812 -5.828125 6.050781 -6.195312 7.03125 -6.9375 C 8.019531 -7.675781 8.515625 -8.910156 8.515625 -10.640625 L 8.515625 -54.0625 C 8.515625 -55.726562 8.035156 -56.929688 7.078125 -57.671875 C 6.117188 -58.410156 4.59375 -58.78125 2.5 -58.78125 C 2.5 -60.820312 3.207031 -62.769531 4.625 -64.625 L 40.546875 -64.625 C 41.597656 -65.113281 42.816406 -65.492188 44.203125 -65.765625 C 45.597656 -66.046875 46.878906 -66.1875 48.046875 -66.1875 C 48.972656 -64.40625 49.972656 -61.9375 51.046875 -58.78125 C 52.128906 -55.632812 52.671875 -53.351562 52.671875 -51.9375 C 51.929688 -51.257812 50.664062 -50.550781 48.875 -49.8125 C 47.09375 -49.070312 45.550781 -48.578125 44.25 -48.328125 C 43.445312 -50.609375 42.179688 -52.582031 40.453125 -54.25 C 38.722656 -55.914062 36.71875 -56.75 34.4375 -56.75 L 23.984375 -56.75 L 23.984375 -37.21875 L 30.640625 -37.21875 C 34.648438 -37.21875 36.65625 -39.46875 36.65625 -43.96875 C 39.4375 -43.96875 41.9375 -43.320312 44.15625 -42.03125 L 44.15625 -24.8125 C 43.164062 -24.195312 42.023438 -23.71875 40.734375 -23.375 C 39.441406 -23.03125 38.113281 -22.859375 36.75 -22.859375 C 36.75 -25.210938 36.191406 -26.972656 35.078125 -28.140625 C 33.972656 -29.316406 32.523438 -29.90625 30.734375 -29.90625 L 23.984375 -29.90625 L 23.984375 -8.140625 L 35.1875 -8.140625 C 37.769531 -8.140625 40.019531 -9.234375 41.9375 -11.421875 C 43.851562 -13.617188 45.054688 -16.320312 45.546875 -19.53125 Z M 55.453125 -19.53125 "/></g></g></g><g fill="#000000" fill-opacity="1"><g transform="translate(926.532949, 1300.784422)"><g><path d="M 40.921875 -43.96875 C 40.367188 -48.101562 39.242188 -51.40625 37.546875 -53.875 C 35.847656 -56.34375 33.671875 -57.578125 31.015625 -57.578125 C 27.242188 -57.578125 24.25 -55.800781 22.03125 -52.25 C 19.8125 -48.707031 18.703125 -43.234375 18.703125 -35.828125 C 18.703125 -26.878906 20.425781 -20.335938 23.875 -16.203125 C 27.332031 -12.066406 31.8125 -10 37.3125 -10 C 39.96875 -10 42.3125 -10.492188 44.34375 -11.484375 C 46.382812 -12.472656 47.835938 -13.644531 48.703125 -15 C 49.441406 -14.445312 50.054688 -13.613281 50.546875 -12.5 C 51.035156 -11.382812 51.28125 -10.363281 51.28125 -9.4375 C 51.28125 -7.894531 50.492188 -6.289062 48.921875 -4.625 C 47.347656 -2.957031 45.078125 -1.550781 42.109375 -0.40625 C 39.148438 0.726562 35.726562 1.296875 31.84375 1.296875 C 26.414062 1.296875 21.460938 0.03125 16.984375 -2.5 C 12.515625 -5.03125 8.953125 -8.851562 6.296875 -13.96875 C 3.640625 -19.09375 2.3125 -25.300781 2.3125 -32.59375 C 2.3125 -39.6875 3.515625 -45.71875 5.921875 -50.6875 C 8.328125 -55.65625 11.707031 -59.390625 16.0625 -61.890625 C 20.414062 -64.390625 25.492188 -65.640625 31.296875 -65.640625 C 32.648438 -65.640625 34.191406 -65.453125 35.921875 -65.078125 C 37.648438 -64.710938 39.160156 -64.21875 40.453125 -63.59375 C 41.378906 -64.03125 42.738281 -64.460938 44.53125 -64.890625 C 46.320312 -65.328125 47.710938 -65.578125 48.703125 -65.640625 C 50.484375 -61.253906 51.375 -54.03125 51.375 -43.96875 Z M 40.921875 -43.96875 "/></g></g></g><g fill="#000000" fill-opacity="1"><g transform="translate(989.947793, 1300.784422)"><g><path d="M 30.921875 1.203125 C 24.992188 1.203125 19.882812 -0.164062 15.59375 -2.90625 C 11.3125 -5.65625 8.023438 -9.5625 5.734375 -14.625 C 3.453125 -19.6875 2.3125 -25.550781 2.3125 -32.21875 C 2.3125 -39.1875 3.484375 -45.1875 5.828125 -50.21875 C 8.171875 -55.25 11.488281 -59.09375 15.78125 -61.75 C 20.070312 -64.40625 25.085938 -65.734375 30.828125 -65.734375 C 36.753906 -65.734375 41.875 -64.34375 46.1875 -61.5625 C 50.507812 -58.789062 53.828125 -54.890625 56.140625 -49.859375 C 58.460938 -44.828125 59.625 -38.945312 59.625 -32.21875 C 59.625 -25.300781 58.429688 -19.328125 56.046875 -14.296875 C 53.671875 -9.273438 50.320312 -5.4375 46 -2.78125 C 41.6875 -0.125 36.660156 1.203125 30.921875 1.203125 Z M 30.921875 -5.5625 C 34.316406 -5.5625 37.078125 -7.503906 39.203125 -11.390625 C 41.335938 -15.273438 42.40625 -22.34375 42.40625 -32.59375 C 42.40625 -42.34375 41.414062 -49.160156 39.4375 -53.046875 C 37.457031 -56.929688 34.679688 -58.875 31.109375 -58.875 C 27.710938 -58.875 24.945312 -56.929688 22.8125 -53.046875 C 20.6875 -49.160156 19.625 -42.125 19.625 -31.9375 C 19.625 -22.1875 20.625 -15.351562 22.625 -11.4375 C 24.632812 -7.519531 27.398438 -5.5625 30.921875 -5.5625 Z M 30.921875 -5.5625 "/></g></g></g></svg>